<svg width="309" height="74" viewBox="0 0 309 74" fill="none" xmlns="http://www.w3.org/2000/svg">
<path d="M47.8924 17.252H27.1067C21.3669 17.252 16.7139 21.6728 16.7139 27.1261V46.8745C16.7139 52.3279 21.3669 56.7487 27.1067 56.7487H47.8924C53.6323 56.7487 58.2853 52.3279 58.2853 46.8745V27.1261C58.2853 21.6728 53.6323 17.252 47.8924 17.252Z" fill="#8B5CF6"/>
<path d="M37.4996 28.7715L28.8389 37V46.8742H32.3032V38.6457H42.696V46.8742H46.1603V37L37.4996 28.7715Z" fill="white"/>
<path d="M40.9637 40.291H34.0352V46.8738H40.9637V40.291Z" fill="white"/>
<path d="M76.4941 43.74L76.1701 37.008L88.2301 24.3H94.7101L83.8381 36L80.5981 39.456L76.4941 43.74ZM71.2741 49.5V24.3H77.0701V49.5H71.2741ZM88.5181 49.5L79.5541 38.52L83.3701 34.38L95.3221 49.5H88.5181ZM97.5266 49.5V30.132H103.143V49.5H97.5266ZM100.335 27.432C99.3026 27.432 98.4626 27.132 97.8146 26.532C97.1666 25.932 96.8426 25.188 96.8426 24.3C96.8426 23.412 97.1666 22.668 97.8146 22.068C98.4626 21.468 99.3026 21.168 100.335 21.168C101.367 21.168 102.207 21.456 102.855 22.032C103.503 22.584 103.827 23.304 103.827 24.192C103.827 25.128 103.503 25.908 102.855 26.532C102.231 27.132 101.391 27.432 100.335 27.432ZM117.571 49.788C115.507 49.788 113.671 49.356 112.063 48.492C110.479 47.628 109.219 46.452 108.283 44.964C107.371 43.452 106.915 41.736 106.915 39.816C106.915 37.872 107.371 36.156 108.283 34.668C109.219 33.156 110.479 31.98 112.063 31.14C113.671 30.276 115.507 29.844 117.571 29.844C119.611 29.844 121.435 30.276 123.043 31.14C124.651 31.98 125.911 33.144 126.823 34.632C127.735 36.12 128.191 37.848 128.191 39.816C128.191 41.736 127.735 43.452 126.823 44.964C125.911 46.452 124.651 47.628 123.043 48.492C121.435 49.356 119.611 49.788 117.571 49.788ZM117.571 45.18C118.507 45.18 119.347 44.964 120.091 44.532C120.835 44.1 121.423 43.488 121.855 42.696C122.287 41.88 122.503 40.92 122.503 39.816C122.503 38.688 122.287 37.728 121.855 36.936C121.423 36.144 120.835 35.532 120.091 35.1C119.347 34.668 118.507 34.452 117.571 34.452C116.635 34.452 115.795 34.668 115.051 35.1C114.307 35.532 113.707 36.144 113.251 36.936C112.819 37.728 112.603 38.688 112.603 39.816C112.603 40.92 112.819 41.88 113.251 42.696C113.707 43.488 114.307 44.1 115.051 44.532C115.795 44.964 116.635 45.18 117.571 45.18ZM138.461 49.788C136.805 49.788 135.209 49.596 133.673 49.212C132.161 48.804 130.961 48.3 130.073 47.7L131.945 43.668C132.833 44.22 133.877 44.676 135.077 45.036C136.301 45.372 137.501 45.54 138.677 45.54C139.973 45.54 140.885 45.384 141.413 45.072C141.965 44.76 142.241 44.328 142.241 43.776C142.241 43.32 142.025 42.984 141.593 42.768C141.185 42.528 140.633 42.348 139.937 42.228C139.241 42.108 138.473 41.988 137.633 41.868C136.817 41.748 135.989 41.592 135.149 41.4C134.309 41.184 133.541 40.872 132.845 40.464C132.149 40.056 131.585 39.504 131.153 38.808C130.745 38.112 130.541 37.212 130.541 36.108C130.541 34.884 130.889 33.804 131.585 32.868C132.305 31.932 133.337 31.2 134.681 30.672C136.025 30.12 137.633 29.844 139.505 29.844C140.825 29.844 142.169 29.988 143.537 30.276C144.905 30.564 146.045 30.984 146.957 31.536L145.085 35.532C144.149 34.98 143.201 34.608 142.241 34.416C141.305 34.2 140.393 34.092 139.505 34.092C138.257 34.092 137.345 34.26 136.769 34.596C136.193 34.932 135.905 35.364 135.905 35.892C135.905 36.372 136.109 36.732 136.517 36.972C136.949 37.212 137.513 37.404 138.209 37.548C138.905 37.692 139.661 37.824 140.477 37.944C141.317 38.04 142.157 38.196 142.997 38.412C143.837 38.628 144.593 38.94 145.265 39.348C145.961 39.732 146.525 40.272 146.957 40.968C147.389 41.64 147.605 42.528 147.605 43.632C147.605 44.832 147.245 45.9 146.525 46.836C145.805 47.748 144.761 48.468 143.393 48.996C142.049 49.524 140.405 49.788 138.461 49.788ZM160.43 49.788C158.342 49.788 156.482 49.368 154.85 48.528C153.218 47.664 151.934 46.476 150.998 44.964C150.086 43.452 149.63 41.736 149.63 39.816C149.63 37.872 150.086 36.156 150.998 34.668C151.934 33.156 153.218 31.98 154.85 31.14C156.482 30.276 158.342 29.844 160.43 29.844C162.47 29.844 164.246 30.276 165.758 31.14C167.27 31.98 168.386 33.192 169.106 34.776L164.75 37.116C164.246 36.204 163.61 35.532 162.842 35.1C162.098 34.668 161.282 34.452 160.394 34.452C159.434 34.452 158.57 34.668 157.802 35.1C157.034 35.532 156.422 36.144 155.966 36.936C155.534 37.728 155.318 38.688 155.318 39.816C155.318 40.944 155.534 41.904 155.966 42.696C156.422 43.488 157.034 44.1 157.802 44.532C158.57 44.964 159.434 45.18 160.394 45.18C161.282 45.18 162.098 44.976 162.842 44.568C163.61 44.136 164.246 43.452 164.75 42.516L169.106 44.892C168.386 46.452 167.27 47.664 165.758 48.528C164.246 49.368 162.47 49.788 160.43 49.788ZM181.309 49.788C179.245 49.788 177.409 49.356 175.801 48.492C174.217 47.628 172.957 46.452 172.021 44.964C171.109 43.452 170.653 41.736 170.653 39.816C170.653 37.872 171.109 36.156 172.021 34.668C172.957 33.156 174.217 31.98 175.801 31.14C177.409 30.276 179.245 29.844 181.309 29.844C183.349 29.844 185.173 30.276 186.781 31.14C188.389 31.98 189.649 33.144 190.561 34.632C191.473 36.12 191.929 37.848 191.929 39.816C191.929 41.736 191.473 43.452 190.561 44.964C189.649 46.452 188.389 47.628 186.781 48.492C185.173 49.356 183.349 49.788 181.309 49.788ZM181.309 45.18C182.245 45.18 183.085 44.964 183.829 44.532C184.573 44.1 185.161 43.488 185.593 42.696C186.025 41.88 186.241 40.92 186.241 39.816C186.241 38.688 186.025 37.728 185.593 36.936C185.161 36.144 184.573 35.532 183.829 35.1C183.085 34.668 182.245 34.452 181.309 34.452C180.373 34.452 179.533 34.668 178.789 35.1C178.045 35.532 177.445 36.144 176.989 36.936C176.557 37.728 176.341 38.688 176.341 39.816C176.341 40.92 176.557 41.88 176.989 42.696C177.445 43.488 178.045 44.1 178.789 44.532C179.533 44.964 180.373 45.18 181.309 45.18ZM197.596 49.788C196.636 49.788 195.808 49.464 195.112 48.816C194.44 48.144 194.104 47.292 194.104 46.26C194.104 45.228 194.44 44.4 195.112 43.776C195.808 43.128 196.636 42.804 197.596 42.804C198.58 42.804 199.408 43.128 200.08 43.776C200.752 44.4 201.088 45.228 201.088 46.26C201.088 47.292 200.752 48.144 200.08 48.816C199.408 49.464 198.58 49.788 197.596 49.788ZM214.043 49.788C211.955 49.788 210.095 49.368 208.463 48.528C206.831 47.664 205.547 46.476 204.611 44.964C203.699 43.452 203.243 41.736 203.243 39.816C203.243 37.872 203.699 36.156 204.611 34.668C205.547 33.156 206.831 31.98 208.463 31.14C210.095 30.276 211.955 29.844 214.043 29.844C216.083 29.844 217.859 30.276 219.371 31.14C220.883 31.98 221.999 33.192 222.719 34.776L218.363 37.116C217.859 36.204 217.223 35.532 216.455 35.1C215.711 34.668 214.895 34.452 214.007 34.452C213.047 34.452 212.183 34.668 211.415 35.1C210.647 35.532 210.035 36.144 209.579 36.936C209.147 37.728 208.931 38.688 208.931 39.816C208.931 40.944 209.147 41.904 209.579 42.696C210.035 43.488 210.647 44.1 211.415 44.532C212.183 44.964 213.047 45.18 214.007 45.18C214.895 45.18 215.711 44.976 216.455 44.568C217.223 44.136 217.859 43.452 218.363 42.516L222.719 44.892C221.999 46.452 220.883 47.664 219.371 48.528C217.859 49.368 216.083 49.788 214.043 49.788ZM234.922 49.788C232.858 49.788 231.022 49.356 229.414 48.492C227.83 47.628 226.57 46.452 225.634 44.964C224.722 43.452 224.266 41.736 224.266 39.816C224.266 37.872 224.722 36.156 225.634 34.668C226.57 33.156 227.83 31.98 229.414 31.14C231.022 30.276 232.858 29.844 234.922 29.844C236.962 29.844 238.786 30.276 240.394 31.14C242.002 31.98 243.262 33.144 244.174 34.632C245.086 36.12 245.542 37.848 245.542 39.816C245.542 41.736 245.086 43.452 244.174 44.964C243.262 46.452 242.002 47.628 240.394 48.492C238.786 49.356 236.962 49.788 234.922 49.788ZM234.922 45.18C235.858 45.18 236.698 44.964 237.442 44.532C238.186 44.1 238.774 43.488 239.206 42.696C239.638 41.88 239.854 40.92 239.854 39.816C239.854 38.688 239.638 37.728 239.206 36.936C238.774 36.144 238.186 35.532 237.442 35.1C236.698 34.668 235.858 34.452 234.922 34.452C233.986 34.452 233.146 34.668 232.402 35.1C231.658 35.532 231.058 36.144 230.602 36.936C230.17 37.728 229.954 38.688 229.954 39.816C229.954 40.92 230.17 41.88 230.602 42.696C231.058 43.488 231.658 44.1 232.402 44.532C233.146 44.964 233.986 45.18 234.922 45.18ZM274.1 29.844C275.636 29.844 276.992 30.156 278.168 30.78C279.368 31.38 280.304 32.316 280.976 33.588C281.672 34.836 282.02 36.444 282.02 38.412V49.5H276.404V39.276C276.404 37.716 276.08 36.564 275.432 35.82C274.784 35.076 273.872 34.704 272.696 34.704C271.88 34.704 271.148 34.896 270.5 35.28C269.852 35.64 269.348 36.192 268.988 36.936C268.628 37.68 268.448 38.628 268.448 39.78V49.5H262.832V39.276C262.832 37.716 262.508 36.564 261.86 35.82C261.236 35.076 260.336 34.704 259.16 34.704C258.344 34.704 257.612 34.896 256.964 35.28C256.316 35.64 255.812 36.192 255.452 36.936C255.092 37.68 254.912 38.628 254.912 39.78V49.5H249.296V30.132H254.66V35.424L253.652 33.876C254.324 32.556 255.272 31.56 256.496 30.888C257.744 30.192 259.16 29.844 260.744 29.844C262.52 29.844 264.068 30.3 265.388 31.212C266.732 32.1 267.62 33.468 268.052 35.316L266.072 34.776C266.72 33.264 267.752 32.064 269.168 31.176C270.608 30.288 272.252 29.844 274.1 29.844Z" fill="#1E0547"/>
</svg>
