<?xml version="1.0" standalone="no"?>
<!DOCTYPE svg PUBLIC "-//W3C//DTD SVG 1.1//EN" "http://www.w3.org/Graphics/SVG/1.1/DTD/svg11.dtd" >
<svg xmlns="http://www.w3.org/2000/svg">
<metadata>
<json>
<![CDATA[
{
	"fontFamily": "kiosko-icons-2",
	"description": "Font generated by IcoMoon.",
	"majorVersion": 2,
	"minorVersion": 0,
	"version": "Version 2.0",
	"fontId": "kiosko-icons-2",
	"psName": "kiosko-icons-2",
	"subFamily": "Regular",
	"fullName": "kiosko-icons-2"
}
]]>
</json>
</metadata>
<defs>
<font id="kiosko-icons-2" horiz-adv-x="1024">
<font-face units-per-em="1024" ascent="960" descent="-64" />
<missing-glyph horiz-adv-x="1024" />
<glyph unicode="&#x20;" horiz-adv-x="512" d="" />
<glyph unicode="&#xe900;" glyph-name="home-bold" data-tags="home-bold" d="M527.249 741.291l-288-271.514v-325.82h115.2v271.516h345.6v-271.516h115.2v325.82l-288 271.514zM623.249 357.291h-192v-213.333h192v213.333z" />
<glyph unicode="&#xe901;" glyph-name="qr" data-tags="qr" d="M159.289 846.222c-25.135 0-45.511-20.376-45.511-45.511v0-182.044h227.556v227.556zM284.444 675.556h-113.778v113.778h113.778zM113.778 95.289c0-25.135 20.376-45.511 45.511-45.511h182.044v227.556h-227.556zM170.667 220.444h113.778v-113.778h-113.778zM682.667 49.778h182.044c25.135 0 45.511 20.376 45.511 45.511v0 182.044h-227.556zM739.556 220.444h113.778v-113.778h-113.778zM864.711 846.222h-182.044v-227.556h227.556v182.044c0 25.135-20.376 45.511-45.511 45.511v0zM853.333 675.556h-113.778v113.778h113.778zM568.889 675.556v56.889h-113.778v-113.778h56.889v56.889h56.889zM341.333 618.667h56.889v-56.889h-56.889v56.889zM398.222 561.778h113.778v-56.889h-113.778v56.889zM568.889 789.333v-56.889h56.889v113.778h-227.556v-113.778h56.889v56.889h113.778zM113.778 561.778h56.889v-113.778h-56.889v113.778zM341.333 504.889v-56.889h-56.889v113.778h-56.889v-113.778h-56.889v-56.889h-56.889v-56.889h113.778v56.889h56.889v-56.889h56.889v56.889h56.889v113.778h-56.889zM568.889 504.889h56.889v-56.889h56.889v56.889h56.889v56.889h-113.778v113.778h-56.889v-56.889h-56.889v-56.889h56.889v-56.889zM512 106.667h-113.778v-56.889h227.556v56.889h-56.889v56.889h-56.889v-56.889zM625.778 391.111v56.889h-56.889v56.889h-56.889v-56.889h-56.889v-56.889h56.889v-56.889h56.889v56.889h56.889zM853.333 391.111h56.889v-56.889h-56.889v56.889zM625.778 391.111h170.667v-56.889h-170.667v56.889zM853.333 561.778h-56.889v-56.889h-56.889v-56.889h56.889v-56.889h56.889v56.889h56.889v56.889h-56.889v56.889zM568.889 334.222h56.889v-170.667h-56.889v170.667zM398.222 163.556h56.889v56.889h56.889v56.889h-56.889v113.778h-56.889v-227.556z" />
<glyph unicode="&#xe902;" glyph-name="account-filled" data-tags="account-filled" d="M721.984 385.835l-209.984-193.835-209.984 193.835c-116.971-74.816-195.349-209.813-195.349-364.501h810.667c0 154.688-78.379 289.685-195.349 364.501zM512 362.667c75.733 0 143.552 33.067 190.421 85.333 40.64 45.312 65.579 105.003 65.579 170.667 0 141.376-114.624 256-256 256s-256-114.624-256-256c0-65.664 24.939-125.355 65.579-170.667 46.869-52.267 114.688-85.333 190.421-85.333z" />
<glyph unicode="&#xe903;" glyph-name="angle-double-left-bold-filled" data-tags="angle-double-left-bold-filled" d="M459.819 77.184l60.331 60.331-311.167 311.168 311.167 311.168-60.331 60.331-371.519-371.498 371.519-371.499zM819.499 759.168l-60.331 60.331-371.52-371.499 371.52-371.499 60.331 60.331-311.147 311.168 311.147 311.168z" />
<glyph unicode="&#xe904;" glyph-name="angle-double-left-small-bold-filled" data-tags="angle-double-left-small-bold-filled" d="M737.835 691.499l-243.52-243.499 243.52-243.499 60.331 60.331-183.147 183.168 183.147 183.168-60.331 60.331zM542.165 631.168l-60.331 60.331-243.52-243.499 243.52-243.477 60.331 60.331-183.147 183.147 183.147 183.168z" />
<glyph unicode="&#xe905;" glyph-name="arrow-back-bold-filled" data-tags="arrow-back-bold-filled" d="M652.501 819.52l-371.52-371.498 371.52-371.499 60.331 60.331-311.147 311.168 311.147 311.168-60.331 60.331z" />
<glyph unicode="&#xe906;" glyph-name="arrow-down-bold" data-tags="arrow-down-bold" d="M512.002 337.685l-311.169 311.168-60.331-60.331 371.5-371.499 371.499 371.499-60.331 60.331-311.168-311.168z" />
<glyph unicode="&#xe907;" glyph-name="arrow-dropdown-bold" data-tags="arrow-dropdown-bold" d="M512 320l-213.333 213.333h426.667l-213.333-213.333z" />
<glyph unicode="&#xe908;" glyph-name="arrow-left-bold-filled" data-tags="arrow-left-bold-filled" d="M469.333 106.667v298.667h384v85.333h-384v298.667l-341.333-341.333 341.333-341.333z" />
<glyph unicode="&#xe909;" glyph-name="attachment-bold-filled" data-tags="attachment-bold-filled" d="M677.931 674.261l-316.8-316.779 60.331-60.331 316.8 316.757c24.939 24.96 65.536 24.939 90.517 0.021 24.939-24.96 24.939-65.557 0-90.517l-316.779-316.757c-66.539-66.539-174.805-66.517-241.344-0.021-66.517 66.539-66.517 174.805 0.021 241.344l331.819 331.904-60.331 60.331-331.84-331.904c-48.363-48.363-74.987-112.619-75.008-180.992 0-68.373 26.624-132.672 74.987-181.013 49.92-49.899 115.434-74.837 180.992-74.837 65.536 0 131.115 24.96 181.013 74.859l316.8 316.757c58.197 58.24 58.197 152.981-0.021 211.2-58.219 58.197-152.939 58.176-211.157-0.021z" />
<glyph unicode="&#xe90a;" glyph-name="bell-bold-filled" data-tags="bell-bold-filled" d="M390.933 108.032c17.195-50.389 64.832-86.699 121.067-86.699s103.87 36.309 121.065 86.699h-242.131zM469.333 874.667v-88.725c-144.192-20.672-256-143.893-256-291.989v-216.619h-85.333v-83.968h768v83.968h-85.333v216.619c0 81.237-33.6 155.072-87.616 208.747-44.672 43.968-103.275 73.899-168.384 83.243v88.725h-85.333z" />
<glyph unicode="&#xe90b;" glyph-name="cart-bold-filled" data-tags="cart-bold-filled" d="M85.333 106.667c0-46.933 38.4-85.333 85.333-85.333h682.667c46.933 0 85.333 38.4 85.333 85.333v554.667h-174.507c-20.416 120.875-125.568 213.333-252.16 213.333s-231.744-92.459-252.139-213.333h-174.528v-554.667zM512 789.333c79.339 0 146.027-54.507 165.056-128h-330.112c19.029 73.493 85.717 128 165.056 128z" />
<glyph unicode="&#xe90c;" glyph-name="mini-cart-bold" data-tags="mini-cart-bold" d="M853.333 21.333c46.933 0 85.333 38.4 85.333 85.333v768h-853.333v-768c0-46.933 38.4-85.333 85.333-85.333h682.667zM512 490.667c47.061 0 85.333 38.272 85.333 85.333v128h85.333v-128c0-94.101-76.565-170.667-170.667-170.667s-170.667 76.565-170.667 170.667v128h85.333v-128c0-47.061 38.272-85.333 85.333-85.333z" />
<glyph unicode="&#xe90d;" glyph-name="cart-bold" data-tags="cart-bold" d="M184.512 740.907l132.437-397.355-105.259-236.885h641.643v85.333h-510.336l47.403 106.667h429.675l135.125 405.333h-668.459l-42.667 128h-158.741v-85.333h92.437l6.741-5.76zM426.667 21.333c23.565 0 42.667 19.102 42.667 42.667s-19.102 42.667-42.667 42.667c-23.565 0-42.667-19.102-42.667-42.667s19.102-42.667 42.667-42.667zM682.667 21.333c23.565 0 42.667 19.102 42.667 42.667s-19.102 42.667-42.667 42.667c-23.565 0-42.667-19.102-42.667-42.667s19.102-42.667 42.667-42.667z" />
<glyph unicode="&#xe90e;" glyph-name="add-cart-bold" data-tags="add-cart-bold" d="M316.949 343.552l-105.259-236.885h641.643v85.333h-510.336l47.403 106.667h429.675l129.899 389.653-80.96 26.987-110.421-331.307h-365.184l-149.333 448h-158.741v-85.333h97.259l134.357-403.115zM426.667 21.333c23.565 0 42.667 19.102 42.667 42.667s-19.102 42.667-42.667 42.667c-23.565 0-42.667-19.102-42.667-42.667s19.102-42.667 42.667-42.667zM682.667 21.333c23.565 0 42.667 19.102 42.667 42.667s-19.102 42.667-42.667 42.667c-23.565 0-42.667-19.102-42.667-42.667s19.102-42.667 42.667-42.667zM618.667 533.333v128h128v85.333h-128v128h-85.333v-128h-128v-85.333h128v-128h85.333z" />
<glyph unicode="&#xe90f;" glyph-name="check-mark-bold-filled" data-tags="check-mark-bold-filled" d="M384 252.331l-256 256-60.352-60.331 316.352-316.331 572.352 572.331-60.352 60.331-512-512z" />
<glyph unicode="&#xe910;" glyph-name="close-bold-filled" data-tags="close-bold-filled" d="M853.333 849.664l-341.333-341.333-341.333 341.333-60.352-60.331 341.354-341.333-341.354-341.333 60.352-60.331 341.333 341.333 341.333-341.333 60.352 60.331-341.355 341.333 341.355 341.333-60.352 60.331z" />
<glyph unicode="&#xe911;" glyph-name="down-load-bold-filled" data-tags="down-load-bold-filled" d="M469.333 874.667v-341.333h-170.667l213.333-213.333 213.333 213.333h-170.667v341.333h-85.333zM170.667 21.333h682.667c47.061 0 85.333 38.272 85.333 85.333v213.333h-85.333v-213.333h-682.667v213.333h-85.333v-213.333c0-47.061 38.272-85.333 85.333-85.333z" />
<glyph unicode="&#xe912;" glyph-name="edit-bold-filled" data-tags="edit-bold-filled" d="M767.991 892.336l-127.994-127.994 188.333-188.335 127.996 127.996-188.335 188.333zM579.669 704l-494.336-494.336v-188.331h188.352l494.315 494.336-188.331 188.331z" />
<glyph unicode="&#xe913;" glyph-name="facebook-bold-filled" data-tags="facebook-bold-filled" d="M512 874.667c-235.648 0-426.667-191.019-426.667-426.667 0-221.227 168.405-403.093 384-424.512v339.179h-106.667v85.333h106.667v64c0 70.592 57.408 128 128 128h64v-85.333h-64c-23.531 0-42.667-19.136-42.667-42.667v-64h106.667v-85.333h-106.667v-339.179c215.595 21.419 384 203.285 384 424.512 0 235.648-191.019 426.667-426.667 426.667z" />
<glyph unicode="&#xe914;" glyph-name="fast-delivery-filled" data-tags="fast-delivery-filled" d="M213.333 405.333h-128v-85.333h128v85.333zM213.333 576h-128v-85.333h128v85.333zM213.333 746.667h-128v-85.333h128v85.333zM938.667 448l-85.333 170.667h-85.333v85.333c0 46.933-38.4 85.333-85.333 85.333h-341.333c-46.933 0-85.333-38.4-85.333-85.333v-426.667c0-46.933 38.4-85.333 85.333-85.333h42.667c0-47.125 38.208-85.333 85.333-85.333s85.333 38.208 85.333 85.333h149.333c0-47.125 38.208-85.333 85.333-85.333s85.333 38.208 85.333 85.333h64v256zM810.667 192c0-11.755-9.579-21.333-21.333-21.333s-21.333 9.579-21.333 21.333c0 11.755 9.579 21.333 21.333 21.333s21.333-9.579 21.333-21.333zM469.333 170.667c-11.755 0-21.333 9.579-21.333 21.333s9.579 21.333 21.333 21.333c11.755 0 21.333-9.579 21.333-21.333s-9.579-21.333-21.333-21.333zM874.667 405.333h-21.333c-46.933 0-85.333 38.4-85.333 85.333v64h45.781l60.885-121.771v-27.563z" />
<glyph unicode="&#xe915;" glyph-name="fast-delivery-filled1" data-tags="fast-delivery-filled" d="M896 832h-512c-46.933 0-85.333-38.4-85.333-85.333v-85.333c-140.8 0-256-115.2-256-256v-256h85.333c0-70.699 57.301-128 128-128s128 57.301 128 128h170.667c0-70.699 57.301-128 128-128s128 57.301 128 128h85.333c46.933 0 85.333 38.4 85.333 85.333v512c0 46.933-38.4 85.333-85.333 85.333zM725.333 149.333c0-23.531-19.136-42.667-42.667-42.667s-42.667 19.136-42.667 42.667c0 23.531 19.136 42.667 42.667 42.667s42.667-19.136 42.667-42.667zM256 106.667c-23.531 0-42.667 19.136-42.667 42.667s19.136 42.667 42.667 42.667c23.531 0 42.667-19.136 42.667-42.667s-19.136-42.667-42.667-42.667zM682.667 490.667v-85.333h-213.333v85.333h213.333zM469.333 576v85.333h298.667v-85.333h-298.667zM298.667 597.333v-85.333c-39.723 0-72.789-27.264-82.325-64h-104.747c19.499 85.376 95.893 149.333 187.072 149.333z" />
<glyph unicode="&#xe916;" glyph-name="location-filled" data-tags="location-filled" d="M512 21.333c0 0 298.667 256 298.667 554.667 0 164.949-133.717 298.667-298.667 298.667s-298.667-133.717-298.667-298.667c0-298.667 298.667-554.667 298.667-554.667zM512 618.667c23.573 0 42.667-19.093 42.667-42.667s-19.093-42.667-42.667-42.667c-23.573 0-42.667 19.093-42.667 42.667s19.093 42.667 42.667 42.667z" />
<glyph unicode="&#xe917;" glyph-name="payment-filled" data-tags="payment-filled" d="M277.333 874.667h-64c-46.933 0-85.333-38.4-85.333-85.333v-511.040c0-46.933 38.4-85.333 85.333-85.333h64v681.707zM858.197 501.461l-218.197 218.176v69.696c0 46.933-38.4 85.333-85.333 85.333h-149.333v-681.707h149.333c46.933 0 85.333 38.4 85.333 85.333v79.189l45.227-45.227 60.352 60.331-233.899 233.899c-8.064 8.064-12.48 18.859-12.459 30.379 0.021 11.392 4.416 22.037 12.459 30.037 16.085 16.107 44.352 16.064 60.416 0l226.112-226.133-1.536 0.469 2.325-1.536c2.795-4.203 11.669-20.224 11.669-54.741v-277.333h-341.333c-40.853 0-76.907 34.837-83.904 81.045l-0.491 3.328h-86.293l2.432-16.085c13.248-87.573 85.589-153.621 168.277-153.621h426.667v362.667c-0.021 74.069-28.693 107.691-37.824 116.501z" />
<glyph unicode="&#xe918;" glyph-name="search-filled" data-tags="search-filled" d="M384 277.333c67.072 0 128.768 22.379 178.624 59.712l290.709-290.731 60.352 60.352-290.731 290.709c37.333 49.856 59.712 111.552 59.712 178.624 0 164.949-133.717 298.667-298.667 298.667s-298.667-133.717-298.667-298.667c0-164.949 133.717-298.667 298.667-298.667zM384 789.333c117.632 0 213.333-95.701 213.333-213.333s-95.701-213.333-213.333-213.333c-117.632 0-213.333 95.701-213.333 213.333s95.701 213.333 213.333 213.333z" />
<glyph unicode="&#xe919;" glyph-name="service-filled" data-tags="service-filled" d="M428.437 533.397c23.565 0 42.667 19.102 42.667 42.667s-19.102 42.667-42.667 42.667c-23.565 0-42.667-19.102-42.667-42.667s19.102-42.667 42.667-42.667zM597.376 533.397c23.563 0 42.667 19.102 42.667 42.667s-19.104 42.667-42.667 42.667c-23.565 0-42.667-19.102-42.667-42.667s19.102-42.667 42.667-42.667zM513.771 279.189c93.12 0 168.896 75.733 168.896 168.811h-85.333c0-46.016-37.483-83.477-83.563-83.477s-83.563 37.461-83.563 83.477h-85.333c0-93.077 75.776-168.811 168.896-168.811zM882.539 554.048c-46.165 160.256-193.856 277.952-368.768 277.952s-322.602-117.696-368.768-277.952c-32.32-3.157-57.899-30.272-57.899-63.381v-85.333c0-35.2 28.8-64 64-64s64 28.8 64 64v42.709c0.021 164.672 133.995 298.624 298.667 298.624 164.693 0 298.667-133.973 298.667-298.667s-133.973-298.667-298.667-298.667h-42.965c-35.2 0-64-28.8-64-64s28.8-64 64-64h85.632c33.109 0 60.245 25.579 63.381 57.899 126.528 36.459 226.261 136.192 262.72 262.72 32.32 3.136 57.899 30.272 57.899 63.381v85.333c0 33.109-25.579 60.245-57.899 63.381z" />
<glyph unicode="&#xe91a;" glyph-name="store-filled" data-tags="store-filled" d="M224 490.667c52.8 0 96 43.2 96 96 0-52.8 43.2-96 96-96s96 43.2 96 96c0-52.8 43.2-96 96-96s96 43.2 96 96c0-52.8 43.2-96 96-96s96 43.2 96 96v192c0 3.648-0.683 7.125-1.088 10.667 0.512 3.52 1.088 7.019 1.088 10.667 0 41.067-33.6 74.667-74.667 74.667h-597.333c-5.141 0-10.155-0.533-14.997-1.536-45.696-7.296-81.003-46.805-81.003-94.464v-192c0-52.8 43.2-96 96-96zM896 192v213.333h-85.333v-128h-341.333v128h-85.333v-298.667h-170.667v298.667h-85.333v-384h768v170.667zM469.333 106.667v85.333h341.333v-85.333h-341.333z" />
<glyph unicode="&#xe91b;" glyph-name="account-light" data-tags="account-light" d="M620.565 432.064c74.901 39.211 126.101 117.525 126.101 207.936 0 129.6-105.067 234.667-234.667 234.667s-234.667-105.067-234.667-234.667c0-90.411 51.2-168.725 126.101-207.936-171.115-49.984-296.768-214.656-296.768-410.731h810.667c0 196.075-125.653 360.747-296.768 410.731zM320 640c0 105.877 86.123 192 192 192s192-86.123 192-192c0-105.877-86.123-192-192-192s-192 86.123-192 192zM512 405.333c186.347 0 340.331-149.611 360.448-341.333h-720.896c20.117 191.723 174.101 341.333 360.448 341.333z" />
<glyph unicode="&#xe91c;" glyph-name="angle-double-left-light" data-tags="angle-double-left-light" d="M499.989 88.491l30.165 30.165-326.251 326.251 326.251 326.251-30.165 30.165-356.437-356.416 356.437-356.416zM820.011 801.323l-356.416-356.416 356.416-356.416 30.187 30.165-326.251 326.251 326.251 326.251-30.187 30.165z" />
<glyph unicode="&#xe91d;" glyph-name="angle-double-left-small-light" data-tags="angle-double-left-small-light" d="M752.919 676.416l-228.416-228.416 228.416-228.416 30.165 30.165-198.251 198.251 198.251 198.251-30.165 30.165zM527.085 646.251l-30.165 30.165-228.416-228.416 228.416-228.395 30.165 30.165-198.251 198.229 198.251 198.251z" />
<glyph unicode="&#xe91e;" glyph-name="arrow-back-light" data-tags="arrow-back-light" d="M667.586 804.438l-356.416-356.416 356.416-356.416 30.165 30.165-326.251 326.251 326.251 326.251-30.165 30.165z" />
<glyph unicode="&#xe91f;" glyph-name="arrow-down-light" data-tags="arrow-down-light" d="M512 307.52l-326.251 326.251-30.165-30.165 356.417-356.416 356.416 356.416-30.165 30.165-326.251-326.251z" />
<glyph unicode="&#xe920;" glyph-name="arrow-dropdown-light" data-tags="arrow-dropdown-light" d="M350.080 512l161.92-161.92 161.92 161.92h-323.84z" />
<glyph unicode="&#xe921;" glyph-name="calendar-filled" data-tags="calendar-filled" d="M853.333 789.333h-128v85.333h-85.333v-85.333h-256v85.333h-85.333v-85.333h-128c-47.061 0-85.333-38.272-85.333-85.333v-597.333c0-47.061 38.272-85.333 85.333-85.333h682.667c47.061 0 85.333 38.272 85.333 85.333v597.333c0 47.061-38.272 85.333-85.333 85.333zM170.667 106.667v533.333h682.645l-0.107-533.333h-682.539zM341.333 405.333c23.565 0 42.667 19.102 42.667 42.667s-19.102 42.667-42.667 42.667c-23.565 0-42.667-19.102-42.667-42.667s19.102-42.667 42.667-42.667zM512 405.333c23.565 0 42.667 19.102 42.667 42.667s-19.102 42.667-42.667 42.667c-23.565 0-42.667-19.102-42.667-42.667s19.102-42.667 42.667-42.667zM682.667 405.333c23.565 0 42.667 19.102 42.667 42.667s-19.102 42.667-42.667 42.667c-23.565 0-42.667-19.102-42.667-42.667s19.102-42.667 42.667-42.667zM341.333 234.667c23.565 0 42.667 19.102 42.667 42.667s-19.102 42.667-42.667 42.667c-23.565 0-42.667-19.102-42.667-42.667s19.102-42.667 42.667-42.667zM512 234.667c23.565 0 42.667 19.102 42.667 42.667s-19.102 42.667-42.667 42.667c-23.565 0-42.667-19.102-42.667-42.667s19.102-42.667 42.667-42.667zM682.667 234.667c23.565 0 42.667 19.102 42.667 42.667s-19.102 42.667-42.667 42.667c-23.565 0-42.667-19.102-42.667-42.667s19.102-42.667 42.667-42.667z" />
<glyph unicode="&#xe922;" glyph-name="attachment-light" data-tags="attachment-light" d="M693.013 659.179l-316.8-316.779 30.165-30.165 316.8 316.779c33.259 33.237 87.403 33.28 120.683 0s33.28-87.424 0-120.683l-316.779-316.757c-74.88-74.88-196.651-74.859-271.531-0.021-74.859 74.859-74.837 196.651 0.021 271.531l331.84 331.882-30.165 30.165-331.84-331.904c-91.499-91.499-91.499-240.384-0.021-331.861 45.76-45.76 105.835-68.608 165.909-68.608s120.192 22.869 165.931 68.629l316.779 316.779c49.899 49.92 49.899 131.115 0 181.013s-131.093 49.877-180.992 0z" />
<glyph unicode="&#xe923;" glyph-name="bell-light" data-tags="bell-light" d="M490.667 853.333v-65.067c-154.368-10.944-277.333-138.965-277.333-294.315v-301.952h-64v-42.667h234.667c0-70.699 57.301-128 128-128s128 57.301 128 128h234.667v42.667h-64v301.952c0 81.237-33.6 155.072-87.616 208.747-49.493 48.725-116.075 80.341-189.717 85.568v65.067h-42.667zM768 192h-512v301.952c0 139.349 114.837 252.715 256 252.715 68.075 0 132.395-26.411 180.992-74.24 48.363-48.064 75.008-111.445 75.008-178.475v-301.952zM512 64c-47.061 0-85.333 38.272-85.333 85.333h170.667c0-47.061-38.272-85.333-85.333-85.333z" />
<glyph unicode="&#xe924;" glyph-name="cart-light" data-tags="cart-light" d="M85.333 106.667c0-46.933 38.4-85.333 85.333-85.333h682.667c46.933 0 85.333 38.4 85.333 85.333v554.667h-196.075c-20.139 109.056-115.776 192-230.592 192s-210.453-82.944-230.592-192h-196.075v-554.667zM512 810.667c91.2 0 167.573-63.957 187.051-149.333h-374.101c19.477 85.376 95.851 149.333 187.051 149.333zM277.333 618.667v-128h42.667v128h384v-128h42.667v128h149.333v-512c0-23.531-19.136-42.667-42.667-42.667h-682.667c-23.531 0-42.667 19.136-42.667 42.667v512h149.333z" />
<glyph unicode="&#xe925;" glyph-name="mini-cart-light" data-tags="mini-cart-light" d="M512 426.667c82.325 0 149.333 66.987 149.333 149.333v106.667h-42.667v-106.667c0-58.816-47.851-106.667-106.667-106.667s-106.667 47.851-106.667 106.667v106.667h-42.667v-106.667c0-82.347 67.008-149.333 149.333-149.333zM85.333 106.667c0-46.933 38.4-85.333 85.333-85.333h682.667c46.933 0 85.333 38.4 85.333 85.333v768h-853.333v-768zM128 832h768v-725.333c0-23.531-19.136-42.667-42.667-42.667h-682.667c-23.531 0-42.667 19.136-42.667 42.667v725.333z" />
<glyph unicode="&#xe926;" glyph-name="cart-light1" data-tags="cart-light" d="M804.715 320l120.896 362.667h-654.229l-42.667 128h-122.048v-42.667h91.285l141.845-425.557-95.296-214.443h587.499v42.667h-521.835l66.368 149.333h428.181zM866.389 640l-92.437-277.333h-395.904l-92.437 277.333h580.779zM426.667 21.333c23.565 0 42.667 19.102 42.667 42.667s-19.102 42.667-42.667 42.667c-23.565 0-42.667-19.102-42.667-42.667s19.102-42.667 42.667-42.667zM682.667 21.333c23.565 0 42.667 19.102 42.667 42.667s-19.102 42.667-42.667 42.667c-23.565 0-42.667-19.102-42.667-42.667s19.102-42.667 42.667-42.667z" />
<glyph unicode="&#xe927;" glyph-name="add-cart-light" data-tags="add-cart-light" d="M804.715 320l118.272 354.816-40.491 13.504-108.544-325.653h-395.904l-149.333 448h-122.048v-42.667h91.285l141.867-425.557-95.317-214.443h587.499v42.667h-521.835l66.368 149.333h428.181zM426.667 21.333c23.565 0 42.667 19.102 42.667 42.667s-19.102 42.667-42.667 42.667c-23.565 0-42.667-19.102-42.667-42.667s19.102-42.667 42.667-42.667zM682.667 21.333c23.565 0 42.667 19.102 42.667 42.667s-19.102 42.667-42.667 42.667c-23.565 0-42.667-19.102-42.667-42.667s19.102-42.667 42.667-42.667zM554.667 853.333v-128h-128v-42.667h128v-128h42.667v128h128v42.667h-128v128h-42.667z" />
<glyph unicode="&#xe928;" glyph-name="check-mark-light" data-tags="check-mark-light" d="M97.836 448l286.166-286.165 542.165 542.165-30.165 30.165-512-512-256.001 256-30.165-30.165z" />
<glyph unicode="&#xe929;" glyph-name="close-light" data-tags="close-light" d="M170.668 76.501l341.334 341.333 341.333-341.333 30.165 30.165-341.333 341.333 341.333 341.333-30.165 30.165-341.333-341.333-341.334 341.333-30.165-30.165 341.334-341.333-341.334-341.333 30.165-30.165z" />
<glyph unicode="&#xe92a;" glyph-name="down-load-light" data-tags="down-load-light" d="M490.669 853.333v-439.168l-192 192-30.165-30.165 243.499-243.499 243.499 243.499-30.165 30.165-192-192v439.168h-42.667zM106.667 298.667v-192c0-35.285 28.715-64 64-64h682.667c35.285 0 64 28.715 64 64v192h-42.667v-192c0-11.776-9.557-21.333-21.333-21.333h-682.667c-11.776 0-21.333 9.557-21.333 21.333v192h-42.667z" />
<glyph unicode="&#xe92b;" glyph-name="edit-light" data-tags="edit-light" d="M938.667 661.333l-213.333 213.333-639.999-640-0.704-214.037 214.036 0.704 640 640zM878.336 661.333l-122.517-122.517-153.003 153.003 122.517 122.517 153.003-153.003zM127.446 63.445l0.512 153.493 444.714 444.715 153.003-153.003-444.736-444.715-153.492-0.491z" />
<glyph unicode="&#xe92c;" glyph-name="facebook-light" data-tags="facebook-light" d="M512 874.667c-235.648 0-426.667-191.019-426.667-426.667s191.019-426.667 426.667-426.667c235.648 0 426.667 191.019 426.667 426.667s-191.019 426.667-426.667 426.667zM533.333 65.088v318.912h128v42.667h-128v85.333c0 35.285 28.715 64 64 64h64v42.667h-64c-58.816 0-106.667-47.851-106.667-106.667v-85.333h-128v-42.667h128v-318.912c-201.792 11.157-362.667 178.368-362.667 382.912 0 211.733 172.267 384 384 384s384-172.267 384-384c0-204.544-160.875-371.755-362.667-382.912z" />
<glyph unicode="&#xe92d;" glyph-name="fast-delivery-light" data-tags="fast-delivery-light" d="M213.333 384h-128v-42.667h128v42.667zM213.333 554.667h-128v-42.667h128v42.667zM213.333 725.333h-128v-42.667h128v42.667zM938.667 448l-85.333 170.667h-85.333v82.88c0 46.933-38.4 85.333-85.333 85.333h-341.333c-46.933 0-85.333-38.4-85.333-85.333v-424.213c0-46.933 38.4-85.333 85.333-85.333h42.667c0-47.125 38.208-85.333 85.333-85.333s85.333 38.208 85.333 85.333h149.333c0-47.125 38.208-85.333 85.333-85.333s85.333 38.208 85.333 85.333h64v256zM832 192c0-23.531-19.136-42.667-42.667-42.667s-42.667 19.136-42.667 42.667c0 23.531 19.136 42.667 42.667 42.667s42.667-19.136 42.667-42.667zM512 192c0-23.531-19.136-42.667-42.667-42.667s-42.667 19.136-42.667 42.667c0 23.531 19.136 42.667 42.667 42.667s42.667-19.136 42.667-42.667zM469.333 277.333c-31.509 0-58.709-17.259-73.493-42.667h-54.507c-23.531 0-42.667 19.136-42.667 42.667v424.213c0 23.531 19.136 42.667 42.667 42.667h341.333c23.531 0 42.667-19.136 42.667-42.667v-424.213c0-23.531-19.136-42.667-42.667-42.667h-139.84c-14.784 25.408-41.984 42.667-73.493 42.667zM896 234.667h-33.173c-14.784 25.408-41.984 42.667-73.493 42.667-7.531 0-14.699-1.28-21.653-3.115 0.043 1.067 0.32 2.048 0.32 3.115v298.667h58.965l69.035-138.069v-203.264z" />
<glyph unicode="&#xe92e;" glyph-name="delivery-light" data-tags="delivery-light" d="M896 832h-512c-46.933 0-85.333-38.4-85.333-85.333v-85.333c-140.8 0-256-115.2-256-256v-256h85.333c0-70.699 57.301-128 128-128s128 57.301 128 128h170.667c0-70.699 57.301-128 128-128s128 57.301 128 128h85.333c46.933 0 85.333 38.4 85.333 85.333v512c0 46.933-38.4 85.333-85.333 85.333zM938.667 234.667c0-23.531-19.136-42.667-42.667-42.667h-92.779c-17.6 49.685-64.853 85.333-120.555 85.333s-102.976-35.648-120.555-85.333h-178.112c-2.645 0-5.205 0.32-7.723 0.789-7.253 20.075-19.349 37.781-34.944 51.776v502.101c0 23.531 19.136 42.667 42.667 42.667h512c23.531 0 42.667-19.136 42.667-42.667v-512zM768 149.333c0-47.061-38.272-85.333-85.333-85.333s-85.333 38.272-85.333 85.333c0 47.061 38.272 85.333 85.333 85.333s85.333-38.272 85.333-85.333zM341.333 149.333c0-47.061-38.272-85.333-85.333-85.333s-85.333 38.272-85.333 85.333c0 47.061 38.272 85.333 85.333 85.333s85.333-38.272 85.333-85.333zM298.667 618.667v-192h-212.245c10.731 107.648 101.824 192 212.245 192zM85.333 192v192h213.333v-114.112c-13.355 4.736-27.691 7.445-42.667 7.445-55.701 0-102.976-35.648-120.555-85.333h-50.112zM746.667 640h-256v-42.667h256v42.667zM661.333 469.333h-170.667v-42.667h170.667v42.667z" />
<glyph unicode="&#xe92f;" glyph-name="link-light" data-tags="link-light" d="M445.867 411.733l-117.333-117.333 29.867-29.867 117.333 117.333-10.667 19.2-19.2 10.667zM578.135 484.267l121.6 121.6-29.867 29.867-121.6-121.6 10.667-19.2 19.2-10.667zM426.667 597.333l-64-64 149.333-85.333-85.333 149.333zM512 448l85.333-149.333 64 64-149.333 85.333zM480.002 145.067c-36.657-32.094-84.145-49.054-132.838-47.441-48.695 1.615-94.955 21.681-129.406 56.13-34.451 34.451-54.516 80.713-56.13 129.406-1.614 48.695 15.345 96.181 47.44 132.838l59.734 59.733-29.867 29.867-59.734-59.733c-33.008-32.821-55.508-74.718-64.64-120.363s-4.484-92.973 13.354-135.968c17.839-42.995 48.061-79.714 86.824-105.487s84.314-39.435 130.863-39.249c62.187 0.48 121.792 24.934 166.4 68.267l59.733 59.733-29.867 29.867-61.867-57.6zM849.067 785.067c-21.807 21.931-47.735 39.334-76.292 51.21s-59.179 17.989-90.108 17.989c-30.927 0-61.551-6.113-90.108-17.989s-54.483-29.279-76.292-51.21l-59.733-59.733 29.867-29.867 59.733 59.733c17.316 19.776 38.507 35.786 62.261 47.038s49.564 17.507 75.836 18.378c26.27 0.871 52.437-3.662 76.885-13.317s46.652-24.227 65.237-42.813c18.586-18.585 33.158-40.791 42.812-65.237 9.655-24.448 14.189-50.618 13.318-76.887s-7.125-52.081-18.379-75.836c-11.251-23.755-27.262-44.945-47.038-62.259l-59.733-59.733 29.867-29.867 59.733 59.733c22.161 21.393 39.827 46.999 51.955 75.315 12.13 28.314 18.481 58.767 18.679 89.57 0.198 30.801-5.758 61.333-17.521 89.803s-29.097 54.3-50.98 75.979z" />
<glyph unicode="&#xe930;" glyph-name="lock-light" data-tags="lock-light" d="M512 320c23.565 0 42.667 19.102 42.667 42.667s-19.102 42.667-42.667 42.667c-23.565 0-42.667-19.102-42.667-42.667s19.102-42.667 42.667-42.667zM256 21.333h512c46.933 0 85.333 38.4 85.333 85.333v384c0 46.933-38.4 85.333-85.333 85.333h-405.333v85.333c0 82.347 67.008 149.333 149.333 149.333s149.333-66.987 149.333-149.333h42.667c0 105.856-86.123 192-192 192s-192-86.144-192-192v-85.333h-64c-46.933 0-85.333-38.4-85.333-85.333v-384c0-46.933 38.4-85.333 85.333-85.333zM213.333 490.667c0 23.531 19.136 42.667 42.667 42.667h512c23.531 0 42.667-19.136 42.667-42.667v-384c0-23.531-19.136-42.667-42.667-42.667h-512c-23.531 0-42.667 19.136-42.667 42.667v384z" />
<glyph unicode="&#xe931;" glyph-name="camera-filled" data-tags="camera-filled" d="M853.333 661.333h-156.587l-73.899 128h-221.696l-73.899-128h-156.587c-46.933 0-85.333-38.4-85.333-85.333v-384c0-46.933 38.4-85.333 85.333-85.333h682.667c46.933 0 85.333 38.4 85.333 85.333v384c0 46.933-38.4 85.333-85.333 85.333zM512 277.333c-70.699 0-128 57.301-128 128s57.301 128 128 128c70.699 0 128-57.301 128-128s-57.301-128-128-128z" />
<glyph unicode="&#xe932;" glyph-name="check-list-filled" data-tags="check-list-filled" d="M170.667 746.667h384v85.333h-469.333v-768h554.667v85.333h-469.333v597.333zM746.667 661.333h192v170.667h-256v-170.667h64zM874.667 576h-192v-356.288l128-160 128 160v356.288h-64zM448 664.405l-80.448-80.448-40.235 40.213-60.309-60.352 100.544-100.523 140.779 140.757-60.331 60.352zM327.317 410.837l-60.309-60.352 100.544-100.523 140.779 140.757-60.331 60.352-80.448-80.448-40.235 40.213z" />
<glyph unicode="&#xe933;" glyph-name="clock-filled" data-tags="clock-filled" d="M512 874.667c-235.648 0-426.667-191.019-426.667-426.667s191.019-426.667 426.667-426.667c235.648 0 426.667 191.019 426.667 426.667s-191.019 426.667-426.667 426.667zM725.333 405.333h-256v256h85.333v-170.667h170.667v-85.333z" />
<glyph unicode="&#xe934;" glyph-name="payment-light" data-tags="payment-light" d="M554.667 873.707h-341.333c-46.933 0-85.333-38.4-85.333-85.333v-511.040c0-46.933 38.4-85.333 85.333-85.333h106.731l2.091-13.845c11.669-77.248 74.944-135.488 147.179-135.488h405.333v341.333c0 71.573-28.885 99.093-31.211 101.056l-203.456 203.456v99.861c0 46.933-38.4 85.333-85.333 85.333zM597.333 788.373v-61.824c-16.555 10.133-35.52 15.851-55.467 15.851-28.544 0-55.339-11.093-75.413-31.168-20.117-19.968-31.211-46.677-31.253-75.221-0.043-28.651 11.029-55.552 31.211-75.733l130.923-130.923v-152.021c0-23.531-19.136-42.667-42.667-42.667h-149.333v596.373h149.333c23.531 0 42.667-19.136 42.667-42.667zM170.667 277.333v511.040c0 23.531 19.136 42.667 42.667 42.667h64v-596.373h-64c-23.531 0-42.667 19.136-42.667 42.667zM832 384v-298.667h-362.667c-51.307 0-96.448 42.645-104.981 99.179l-1.131 7.488h191.445c46.933 0 85.333 38.4 85.333 85.333v109.355l45.227-45.227 30.165 30.165-75.392 75.392v0.981h-0.981l-142.443 142.443c-12.096 12.096-18.731 28.245-18.709 45.504 0.021 17.109 6.656 33.109 18.709 45.077 23.936 23.915 65.685 24.043 89.899 0.533 0.213-0.213 0.469-0.341 0.683-0.533l226.645-226.624c0.171-0.171 18.197-18.773 18.197-70.4z" />
<glyph unicode="&#xe935;" glyph-name="uniE935" d="M220.315 448c0 32.518 5.401 63.693 15.040 92.934l-168.721 128.842c-32.883-66.765-51.409-141.995-51.409-221.776 0-79.713 18.504-154.897 51.341-221.616l168.63 129.092c-9.548 29.104-14.88 60.166-14.88 92.524z" />
<glyph unicode="&#xe936;" glyph-name="credit-card-filled" data-tags="credit-card-filled" d="M938.667 426.667v277.333c0 46.933-38.4 85.333-85.333 85.333h-682.667c-46.933 0-85.333-38.4-85.333-85.333v-277.333h853.333zM85.333 298.667v-106.667c0-46.933 38.4-85.333 85.333-85.333h682.667c46.933 0 85.333 38.4 85.333 85.333v106.667h-853.333z" />
<glyph unicode="&#xe937;" glyph-name="discount-filled" data-tags="discount-filled" d="M810.656 807.009l-657.666-657.668 60.339-60.339 657.666 657.668-60.339 60.339zM298.667 490.667c94.251 0 170.667 76.416 170.667 170.667s-76.416 170.667-170.667 170.667c-94.251 0-170.667-76.416-170.667-170.667s76.416-170.667 170.667-170.667zM298.667 746.667c47.061 0 85.333-38.272 85.333-85.333s-38.272-85.333-85.333-85.333c-47.061 0-85.333 38.272-85.333 85.333s38.272 85.333 85.333 85.333zM725.333 64c94.251 0 170.667 76.416 170.667 170.667s-76.416 170.667-170.667 170.667c-94.251 0-170.667-76.416-170.667-170.667s76.416-170.667 170.667-170.667zM725.333 320c47.061 0 85.333-38.272 85.333-85.333s-38.272-85.333-85.333-85.333c-47.061 0-85.333 38.272-85.333 85.333s38.272 85.333 85.333 85.333z" />
<glyph unicode="&#xe938;" glyph-name="search-light" data-tags="search-light" d="M384 277.333c74.795 0 142.997 27.691 195.392 73.109l273.941-273.941 30.165 30.165-273.941 273.941c45.419 52.395 73.109 120.597 73.109 195.392 0 164.949-133.717 298.667-298.667 298.667s-298.667-133.717-298.667-298.667c0-164.949 133.717-298.667 298.667-298.667zM384 832c141.163 0 256-114.837 256-256s-114.837-256-256-256c-141.163 0-256 114.837-256 256s114.837 256 256 256z" />
<glyph unicode="&#xe939;" glyph-name="exclamation-triangle-filled" data-tags="exclamation-triangle-filled" d="M549.803 853.312c-7.616 13.205-21.717 21.333-36.949 21.333s-29.333-8.128-36.949-21.333l-393.729-681.962c-7.595-13.205-7.595-29.461 0-42.667 7.616-13.205 21.717-21.333 36.949-21.333h787.457c15.253 0 29.333 8.128 36.949 21.333 7.595 13.205 7.595 29.461 0 42.667l-393.728 681.962zM193.023 192.683l319.83 553.963 319.829-553.963h-639.66zM554.084 618.805l-85.333-0.333 1.082-277.333 85.333 0.333-1.082 277.333zM512.489 296.021c-20.672 0-37.44-16.768-37.44-37.44s16.768-37.419 37.44-37.419c20.672 0 37.44 16.768 37.44 37.419 0 20.693-16.768 37.44-37.44 37.44z" />
<glyph unicode="&#xe93a;" glyph-name="store-light" data-tags="store-light" d="M224 493.333c39.637 0 74.752 19.755 96 49.941 21.248-30.187 56.363-49.941 96-49.941s74.752 19.755 96 49.941c21.248-30.187 56.363-49.941 96-49.941s74.752 19.755 96 49.941c21.248-30.187 56.363-49.941 96-49.941 64.683 0 117.333 52.651 117.333 117.333v125.333c0 3.541-0.427 6.976-0.875 10.411v0.064c0.469 3.563 0.875 7.168 0.875 10.859 0 52.928-43.072 96-96 96h-597.333c-6.507 0-13.013-0.661-18.368-1.792-57.344-9.173-98.965-57.771-98.965-115.541v-125.333c0-64.683 52.629-117.333 117.333-117.333zM149.333 736c0 36.096 27.115 67.669 63.979 73.579 3.477 0.725 7.083 1.088 10.688 1.088h597.333c29.419 0 53.333-23.915 53.333-53.333 0-2.347-0.427-4.608-0.853-7.531l-0.405-2.752 0.768-6.443c0.213-1.493 0.491-3.029 0.491-4.608v-125.333c0-41.173-33.493-74.667-74.667-74.667s-74.667 33.493-74.667 74.667v72h-42.667v-72c0-41.173-33.493-74.667-74.667-74.667s-74.667 33.493-74.667 74.667v72h-42.667v-72c0-41.173-33.493-74.667-74.667-74.667s-74.667 33.493-74.667 74.667v72h-42.667v-72c0-41.173-33.493-74.667-74.667-74.667s-74.667 33.493-74.667 74.667v125.333zM874.667 213.333v170.667h-42.667v-128h-384v128h-42.667v-298.667h-213.333v298.667h-42.667v-341.333h725.333v170.667zM448 85.333v128h384v-128h-384z" />
<glyph unicode="&#xe93b;" glyph-name="hangtag-filled" data-tags="hangtag-filled" d="M938.667 490.667v384h-384l-469.333-469.333 384-384 469.333 469.333zM682.667 661.333c23.573 0 42.667-19.093 42.667-42.667s-19.093-42.667-42.667-42.667c-23.573 0-42.667 19.093-42.667 42.667s19.093 42.667 42.667 42.667z" />
<glyph unicode="&#xe93c;" glyph-name="linkoff-filled" data-tags="linkoff-filled" d="M371.2 247.467l108.8 106.667-17.067 44.8-44.8 17.067-106.667-108.8 59.733-59.733zM652.8 648.533l-106.667-106.667 14.933-44.8 44.8-14.933 106.667 106.667-59.733 59.733zM682.667 384l-170.667 64 64-170.667 106.667 106.667zM448 618.667l-106.667-106.667 170.667-64-64 170.667zM522.667 217.6l-59.733-59.733c-32.465-29.417-74.999-45.22-118.797-44.143-43.795 1.079-85.5 18.957-116.478 49.935s-48.857 72.683-49.935 116.48c-1.078 43.795 14.727 86.33 44.143 118.795l59.733 59.733-61.867 61.867-59.734-59.733c-35.929-35.804-60.412-81.476-70.342-131.217-9.93-49.743-4.859-101.314 14.569-148.169 19.428-46.857 52.337-86.884 94.552-115.006 42.215-28.119 91.832-43.066 142.556-42.942 33.67-0.235 67.051 6.246 98.187 19.068s59.403 31.723 83.147 55.599l59.733 59.733-59.733 59.733zM861.867 797.867c-48.228 47.837-113.406 74.679-181.333 74.679-67.93 0-133.105-26.842-181.333-74.679l-59.733-59.733 59.733-59.733 59.733 59.733c32.465 29.416 74.997 45.221 118.795 44.143 43.795-1.078 85.5-18.957 116.478-49.935s48.858-72.683 49.937-116.48c1.077-43.795-14.726-86.33-44.143-118.795l-59.733-59.733 59.733-59.733 59.733 59.733c23.876 23.742 42.778 52.009 55.599 83.145s19.302 64.516 19.068 98.189c0.815 33.244-5.201 66.3-17.679 97.124-12.476 30.825-31.147 58.759-54.854 82.076z" />
<glyph unicode="&#xe93d;" glyph-name="lock-filled" data-tags="lock-filled" d="M256 21.333h512c46.933 0 85.333 38.4 85.333 85.333v384c0 46.933-38.4 85.333-85.333 85.333h-384v85.333c0 70.592 57.408 128 128 128s128-57.408 128-128h85.333c0 117.632-95.701 213.333-213.333 213.333s-213.333-95.701-213.333-213.333v-85.333h-42.667c-46.933 0-85.333-38.4-85.333-85.333v-384c0-46.933 38.4-85.333 85.333-85.333zM469.333 362.667c0 23.573 19.093 42.667 42.667 42.667s42.667-19.093 42.667-42.667c0-23.573-19.093-42.667-42.667-42.667s-42.667 19.093-42.667 42.667z" />
<glyph unicode="&#xe93e;" glyph-name="note-filled" data-tags="note-filled" d="M853.333 149.333h-682.667v597.333h341.333v85.333h-426.667v-768h853.333v426.667h-85.333v-341.333zM768.006 892.328l-85.335-85.335 188.335-188.333 85.335 85.333-188.335 188.335zM622.336 746.667l-195.669-195.669v-188.331h188.331l195.669 195.669-188.331 188.331z" />
<glyph unicode="&#xe93f;" glyph-name="ph-on-e-filled" data-tags="ph-on-e-filled" d="M682.219 21.333c47.061 0 85.333 38.272 85.333 85.333v682.667c0 47.061-38.272 85.333-85.333 85.333h-341.333c-47.061 0-85.333-38.272-85.333-85.333v-682.667c0-47.061 38.272-85.333 85.333-85.333h341.333zM426.219 789.333v-85.333h170.667v85.333h85.333l-0.107-597.333h-341.227v597.333h85.333z" />
<glyph unicode="&#xe940;" glyph-name="plus-filled" data-tags="plus-filled" d="M554.667 789.333h-85.333v-298.667h-298.667v-85.333h298.667v-298.667h85.333v298.667h298.667v85.333h-298.667v298.667z" />
<glyph unicode="&#xe941;" glyph-name="refresh-filled" data-tags="refresh-filled" d="M780.055 658.901l-67.093-52.715c25.491-32.414 42.793-70.498 50.436-111.023 7.642-40.523 5.402-82.293-6.532-121.766-19.925-65.408-64.107-119.168-124.437-151.36s-129.621-38.912-195.008-19.051c-65.408 19.925-119.168 64.107-151.36 124.437s-38.933 129.579-19.051 195.008c19.883 65.429 64.085 119.168 124.416 151.36 30.733 16.388 64.489 26.327 99.2 29.205l0.043-105.664 192 149.333-192 149.333v-107.605c-48.742-2.947-96.277-16.357-139.371-39.317-39.622-20.996-74.684-49.645-103.155-84.288-28.471-34.641-49.787-74.588-62.712-117.525-13.171-42.865-17.711-87.915-13.357-132.546 4.354-44.629 17.515-87.953 38.722-127.465 20.999-39.622 49.648-74.684 84.291-103.159 34.641-28.474 74.586-49.796 117.523-62.729 32.341-9.892 65.973-14.933 99.797-14.955 55.275 0 110.059 13.589 160.213 40.341 39.62 20.998 74.684 49.649 103.157 84.29 28.476 34.641 49.796 74.586 62.731 117.523 15.936 52.614 18.944 108.299 8.768 162.325s-33.235 104.798-67.221 148.011z" />
<glyph unicode="&#xe942;" glyph-name="star-filled" data-tags="star-filled" d="M643.84 593.771l-131.84 280.896-131.84-280.896-294.827-45.056 213.333-218.645-50.368-308.736 263.701 145.771 263.701-145.771-50.368 308.736 213.333 218.645-294.827 45.056z" />
<glyph unicode="&#xe943;" glyph-name="three-dots-horizontal-filled" data-tags="three-dots-horizontal-filled" d="M512 341.333c58.91 0 106.667 47.757 106.667 106.667s-47.757 106.667-106.667 106.667c-58.91 0-106.667-47.757-106.667-106.667s47.757-106.667 106.667-106.667zM789.333 341.333c58.91 0 106.667 47.757 106.667 106.667s-47.757 106.667-106.667 106.667c-58.91 0-106.667-47.757-106.667-106.667s47.757-106.667 106.667-106.667zM234.667 341.333c58.91 0 106.667 47.757 106.667 106.667s-47.757 106.667-106.667 106.667c-58.91 0-106.667-47.757-106.667-106.667s47.756-106.667 106.667-106.667z" />
<glyph unicode="&#xe944;" glyph-name="trash-filled" data-tags="trash-filled" d="M896 789.333h-213.333c0 47.061-38.272 85.333-85.333 85.333h-170.667c-47.061 0-85.333-38.272-85.333-85.333h-213.333v-85.333h768v85.333zM469.333 192h-85.333v426.667h-170.667v-518.101c0-43.691 38.272-79.232 85.333-79.232h426.667c47.061 0 85.333 35.541 85.333 79.232v518.101h-170.667v-426.667h-85.333v426.667h-85.333v-426.667z" />
<glyph unicode="&#xe945;" glyph-name="warning-filled" data-tags="warning-filled" d="M512 874.667c-235.648 0-426.667-191.019-426.667-426.667s191.019-426.667 426.667-426.667c235.648 0 426.667 191.019 426.667 426.667s-191.019 426.667-426.667 426.667zM512 192c-23.573 0-42.667 19.093-42.667 42.667s19.093 42.667 42.667 42.667c23.573 0 42.667-19.093 42.667-42.667s-19.093-42.667-42.667-42.667zM554.667 362.667h-85.333v341.333h85.333v-341.333z" />
<glyph unicode="&#xe946;" glyph-name="arrow-right-light" data-tags="arrow-right-light" d="M192 426.667h567.168l-320-320 30.165-30.165 371.499 371.499-371.499 371.499-30.165-30.165 320-320h-567.168v-42.667z" />
<glyph unicode="&#xe947;" glyph-name="arrow-up-light" data-tags="arrow-up-light" d="M155.583 292.437l30.165-30.165 326.251 326.251 326.251-326.251 30.165 30.165-356.416 356.416-356.417-356.416z" />
<glyph unicode="&#xe948;" glyph-name="bookmark-light" data-tags="bookmark-light" d="M298.667 874.667c-46.933 0-85.333-38.4-85.333-85.333v-768l298.667 170.667 298.667-170.667v768c0 46.933-38.4 85.333-85.333 85.333h-426.667zM768 789.333v-694.485l-256 146.283-256-146.283v694.485c0 23.531 19.136 42.667 42.667 42.667h426.667c23.531 0 42.667-19.136 42.667-42.667z" />
<glyph unicode="&#xe949;" glyph-name="check-box-light" data-tags="check-box-light" d="M192 789.333v-640h640v348.693h-42.667v-306.027h-554.667v554.667h385.024v42.667h-427.691zM377.749 569.749l-30.166-30.166 149.333-149.333 15.083 15.083 15.083-15.083 362.667 362.666-30.165 30.165-347.584-347.583-134.251 134.251z" />
<glyph unicode="&#xe94a;" glyph-name="check-list-light" data-tags="check-list-light" d="M149.333 768h405.333v42.667h-448v-725.333h533.333v42.667h-490.667v640zM704 227.179l106.667-133.333 106.667 133.333v583.488h-213.333v-583.488zM746.667 768h128v-128h-128v128zM746.667 597.333h128v-355.179l-64-80-64 80v355.179zM448 634.219l-80.448-80.427-40.213 40.213-30.165-30.165 70.379-70.379 110.613 110.592-30.165 30.165zM327.339 380.672l-30.165-30.165 70.379-70.379 110.613 110.592-30.165 30.165-80.448-80.427-40.213 40.213z" />
<glyph unicode="&#xe94b;" glyph-name="clock-light" data-tags="clock-light" d="M512 874.667c-235.648 0-426.667-191.019-426.667-426.667s191.019-426.667 426.667-426.667c235.648 0 426.667 191.019 426.667 426.667s-191.019 426.667-426.667 426.667zM512 64c-211.733 0-384 172.267-384 384s172.267 384 384 384c211.733 0 384-172.267 384-384s-172.267-384-384-384zM533.333 640h-42.667v-213.333h213.333v42.667h-170.667v170.667z" />
<glyph unicode="&#xe94c;" glyph-name="uniE94C" d="M516.558 743.822c70.642 0 134.448-25.031 184.582-65.991l145.842 145.636c-88.873 77.369-202.812 125.156-330.424 125.156-198.118 0-368.389-113.3-449.924-278.847l168.721-128.842c38.876 118.010 149.694 202.889 281.202 202.889z" />
<glyph unicode="&#xe94d;" glyph-name="credit-card-light" data-tags="credit-card-light" d="M853.333 789.333h-682.667c-46.933 0-85.333-38.4-85.333-85.333v-512c0-46.933 38.4-85.333 85.333-85.333h682.667c46.933 0 85.333 38.4 85.333 85.333v512c0 46.933-38.4 85.333-85.333 85.333zM896 192c0-23.531-19.136-42.667-42.667-42.667h-682.667c-23.531 0-42.667 19.136-42.667 42.667v128h768v-128zM896 405.333h-768v298.667c0 23.531 19.136 42.667 42.667 42.667h682.667c23.531 0 42.667-19.136 42.667-42.667v-298.667z" />
<glyph unicode="&#xe94e;" glyph-name="discount-light" data-tags="discount-light" d="M810.656 776.833l-627.497-627.498 30.17-30.17 627.497 627.499-30.17 30.169zM128 661.333c0-94.251 76.416-170.667 170.667-170.667s170.667 76.416 170.667 170.667c0 94.251-76.416 170.667-170.667 170.667s-170.667-76.416-170.667-170.667zM298.667 789.333c70.571 0 128-57.429 128-128s-57.429-128-128-128c-70.571 0-128 57.429-128 128s57.429 128 128 128zM725.333 64c94.251 0 170.667 76.416 170.667 170.667s-76.416 170.667-170.667 170.667c-94.251 0-170.667-76.416-170.667-170.667s76.416-170.667 170.667-170.667zM725.333 362.667c70.571 0 128-57.429 128-128s-57.429-128-128-128c-70.571 0-128 57.429-128 128s57.429 128 128 128z" />
<glyph unicode="&#xe94f;" glyph-name="exclamation-triangle" data-tags="exclamation-triangle" d="M531.541 840.32c-7.616 13.205-29.333 13.205-36.949 0l-393.728-681.963c-3.819-6.613-3.819-14.72 0-21.333s10.859-10.667 18.475-10.667h787.456c7.616 0 14.677 4.053 18.475 10.667s3.819 14.72 0 21.333l-393.728 681.963zM156.288 169.024l356.779 617.963 356.779-617.963h-713.557zM532.966 616.395l-42.667-0.166 1.082-277.333 42.667 0.166-1.082 277.333zM475.287 256.277c0-20.672 16.768-37.44 37.44-37.44s37.44 16.747 37.44 37.44c0 20.672-16.768 37.419-37.44 37.419s-37.44-16.747-37.44-37.419z" />
<glyph unicode="&#xe950;" glyph-name="hangtag-light" data-tags="hangtag-light" d="M85.333 405.333l384-384 469.333 469.333v384h-384l-469.333-469.333zM896 832v-323.669l-426.667-426.667-323.669 323.669 426.667 426.667h323.669zM682.667 576c23.565 0 42.667 19.102 42.667 42.667s-19.102 42.667-42.667 42.667c-23.565 0-42.667-19.102-42.667-42.667s19.102-42.667 42.667-42.667z" />
<glyph unicode="&#xe951;" glyph-name="location-light" data-tags="location-light" d="M512 874.667c-164.949 0-298.667-133.717-298.667-298.667 0-298.667 298.667-554.667 298.667-554.667s298.667 256 298.667 554.667c0 164.949-133.717 298.667-298.667 298.667zM512 79.787c-71.467 70.251-256 273.259-256 496.213 0 141.163 114.837 256 256 256s256-114.837 256-256c0-222.976-184.555-425.984-256-496.213zM512 533.333c23.565 0 42.667 19.102 42.667 42.667s-19.102 42.667-42.667 42.667c-23.565 0-42.667-19.102-42.667-42.667s19.102-42.667 42.667-42.667z" />
<glyph unicode="&#xe952;" glyph-name="note-light" data-tags="note-light" d="M874.667 128h-725.333v640h362.667v42.667h-405.333v-725.333h810.667v405.333h-42.667v-362.667zM448 542.165v-158.165h158.165l320 320-158.165 158.165-320-320zM588.501 426.667h-97.835v97.835l277.333 277.333 97.835-97.835-277.333-277.333z" />
<glyph unicode="&#xe953;" glyph-name="phone-light" data-tags="phone-light" d="M576 746.667h-128v-42.667h128v42.667zM512 149.333c23.565 0 42.667 19.102 42.667 42.667s-19.102 42.667-42.667 42.667c-23.565 0-42.667-19.102-42.667-42.667s19.102-42.667 42.667-42.667zM682.667 21.333c46.933 0 85.333 38.4 85.333 85.333v682.667c0 46.933-38.4 85.333-85.333 85.333h-341.333c-46.933 0-85.333-38.4-85.333-85.333v-682.667c0-46.933 38.4-85.333 85.333-85.333h341.333zM298.667 106.667v682.667c0 23.531 19.136 42.667 42.667 42.667h341.333c23.531 0 42.667-19.136 42.667-42.667v-682.667c0-23.531-19.136-42.667-42.667-42.667h-341.333c-23.531 0-42.667 19.136-42.667 42.667z" />
<glyph unicode="&#xe954;" glyph-name="plus-light" data-tags="plus-light" d="M533.333 789.333h-42.667v-320h-320v-42.667h320v-320h42.667v320h320v42.667h-320v320z" />
<glyph unicode="&#xe955;" glyph-name="refresh-light" data-tags="refresh-light" d="M763.285 645.739l-33.536-26.368c27.618-35.11 46.359-76.365 54.635-120.262s5.837-89.143-7.104-131.898c-10.515-34.886-27.84-67.341-50.974-95.488-23.136-28.149-51.622-51.43-83.81-68.501-32.102-17.222-67.3-27.913-103.558-31.45s-72.858 0.147-107.684 10.842c-34.884 10.511-67.337 27.836-95.482 50.972-28.145 23.134-51.422 51.622-68.486 83.812-17.246 32.094-27.951 67.292-31.492 103.552-3.541 36.262 0.151 72.866 10.863 107.691 10.507 34.886 27.827 67.341 50.959 95.49s51.616 51.43 83.804 68.499c49.702 26.637 106.394 37.346 162.389 30.677l-110.869-110.891 30.165-30.165 164.395 164.416-164.416 164.415-30.165-30.165 115.179-115.179c-64.42 7.517-129.598-4.863-186.773-35.477-75.413-40.235-130.645-107.413-155.52-189.184s-16.427-168.341 23.787-243.755c19.691-37.146 46.551-70.018 79.029-96.717 32.476-26.697 69.924-46.692 110.176-58.825 30.784-9.344 62.251-13.995 93.568-13.995 51.819 0 103.168 12.736 150.187 37.803 37.146 19.684 70.020 46.539 96.719 79.012s46.692 69.92 58.822 110.172c14.942 49.331 17.76 101.538 8.22 152.192s-31.162 98.257-63.025 138.773z" />
<glyph unicode="&#xe956;" glyph-name="star-light" data-tags="star-light" d="M643.84 593.771l-131.84 280.896-131.84-280.896-294.827-45.056 213.333-218.645-50.368-308.736 263.701 145.771 263.701-145.771-50.368 308.736 213.333 218.645-294.827 45.056zM683.221 323.2l36.224-222.016-207.445 114.667-207.445-114.667 36.224 222.016 3.456 21.248-170.368 174.635 235.243 35.947 9.664 20.608 93.227 198.613 102.891-219.221 235.243-35.947-170.389-174.613 3.477-21.269z" />
<glyph unicode="&#xe957;" glyph-name="three-dots-light" data-tags="three-dots-light" d="M512 341.333c58.901 0 106.667 47.765 106.667 106.667s-47.765 106.667-106.667 106.667c-58.901 0-106.667-47.765-106.667-106.667s47.765-106.667 106.667-106.667zM512 512c35.285 0 64-28.715 64-64s-28.715-64-64-64c-35.285 0-64 28.715-64 64s28.715 64 64 64zM789.333 341.333c58.901 0 106.667 47.765 106.667 106.667s-47.765 106.667-106.667 106.667c-58.901 0-106.667-47.765-106.667-106.667s47.765-106.667 106.667-106.667zM789.333 512c35.285 0 64-28.715 64-64s-28.715-64-64-64c-35.285 0-64 28.715-64 64s28.715 64 64 64zM234.667 341.333c58.901 0 106.667 47.765 106.667 106.667s-47.765 106.667-106.667 106.667c-58.901 0-106.667-47.765-106.667-106.667s47.765-106.667 106.667-106.667zM234.667 512c35.285 0 64-28.715 64-64s-28.715-64-64-64c-35.285 0-64 28.715-64 64s28.715 64 64 64z" />
<glyph unicode="&#xe958;" glyph-name="trash-light" data-tags="trash-light" d="M640 874.667h-256c-46.933 0-85.333-38.4-85.333-85.333v-106.667h-149.333v-42.667h64v-533.333c0-46.933 38.4-85.333 85.333-85.333h426.667c46.933 0 85.333 38.4 85.333 85.333v533.333h64v42.667h-149.333v106.667c0 46.933-38.4 85.333-85.333 85.333zM341.333 789.333c0 23.531 19.136 42.667 42.667 42.667h256c23.531 0 42.667-19.136 42.667-42.667v-106.667h-341.333v106.667zM768 106.667c0-23.531-19.136-42.667-42.667-42.667h-426.667c-23.531 0-42.667 19.136-42.667 42.667v533.333h512v-533.333zM448 512h-42.667v-298.667h42.667v298.667zM618.667 512h-42.667v-298.667h42.667v298.667z" />
<glyph unicode="&#xe959;" glyph-name="warning-light" data-tags="warning-light" d="M512 874.667c-235.648 0-426.667-191.019-426.667-426.667s191.019-426.667 426.667-426.667c235.648 0 426.667 191.019 426.667 426.667s-191.019 426.667-426.667 426.667zM512 64c-211.733 0-384 172.267-384 384s172.267 384 384 384c211.733 0 384-172.267 384-384s-172.267-384-384-384zM533.333 682.667h-42.667v-298.667h42.667v298.667zM512 192c23.565 0 42.667 19.102 42.667 42.667s-19.102 42.667-42.667 42.667c-23.565 0-42.667-19.102-42.667-42.667s19.102-42.667 42.667-42.667z" />
<glyph unicode="&#xe95a;" glyph-name="uniE95A" d="M516.558 152.178c-131.509 0-242.326 84.878-281.202 202.889l-168.721-128.819c81.535-165.569 251.806-278.869 449.924-278.869 122.28 0 239.022 43.418 326.641 124.769l-160.153 123.813c-45.188-28.467-102.090-43.782-166.488-43.782z" />
<glyph unicode="&#xe95b;" glyph-name="uniE95B" d="M995.103 448c0 29.582-4.558 61.44-11.394 91.022h-467.152v-193.422h268.897c-13.445-65.946-50.042-116.645-102.409-149.641l160.153-123.813c92.040 85.424 151.904 212.673 151.904 375.854z" />
<glyph unicode="&#xe95c;" glyph-name="fork-and-spoon" data-tags="fork-and-spoon" d="M448 960c-0.005 0-0.012 0-0.018 0-35.336 0-63.982-28.646-63.982-63.982 0-0.006 0-0.013 0-0.019v0.001-320h-64v320c0 35.346-28.654 64-64 64s-64-28.654-64-64v0-320h-64v320c0 35.346-28.654 64-64 64s-64-28.654-64-64v0-384c0-0.005 0-0.012 0-0.018 0-35.336 28.646-63.982 63.982-63.982 0.006 0 0.013 0 0.019 0h127.999v-448c0-35.346 28.654-64 64-64s64 28.654 64 64v0 448h128c0.005 0 0.012 0 0.018 0 35.336 0 63.982 28.646 63.982 63.982 0 0.006 0 0.013 0 0.019v-0.001 384c0 0.005 0 0.012 0 0.018 0 35.336-28.646 63.982-63.982 63.982-0.006 0-0.013 0-0.019 0h0.001zM832 960c-106.039 0-192-85.961-192-192v0c0-83.5 53.6-153.812 128-180.25v-587.75c0-35.346 28.654-64 64-64s64 28.654 64 64v0 587.75c74.4 26.438 128 96.75 128 180.25 0 106.039-85.961 192-192 192v0z" />
<glyph unicode="&#xe95d;" glyph-name="alpaca" data-tags="alpaca" d="M943.32 366.572c-17.632 105.88-91.762 169.422-201.174 169.422-126.718 23.038-296.45-28.24-359.988 21.162-63.522 49.42-42.344 148.242-35.282 218.824 7.060 70.582-35.3 95.292-35.3 95.292s0 81.172-35.3 88.232c-35.282 7.060-42.34-63.522-42.34-63.522s-56.482-14.12-77.644-42.36c-21.18-28.224-77.66-35.282-77.66-77.642s91.78-24.348 91.78-95.292c0-95.292-14.12-367.048 127.046-458.81l63.538-285.878h91.744l3.53 254.106h261.184l10.59-254.106h105.864c0 0 42.36 247.048 56.48 324.708 2.55 13.98 4.376 30.994 4.804 49.574 18.442-19.992 59.82-13.846 48.128 56.29z" />
<glyph unicode="&#xe95e;" glyph-name="simple-pig" data-tags="simple-pig" d="M991.13 685.76c-12.406 0-24.844 4.968-49 6.062-77.656 105.688-214.126 164.376-353.844 154.656-134.718-9.438-212.656-47.468-273.562-94.188-85.438 61.376-184.812 49.626-184.812 49.626l57.468-162.782c-46.844-38.906-102.344-73.532-187.376-93.312l81.656-233.812c0 0 83.218-56.156 199.282-106.032l58.656-157.5h128.062v96.282c39.906-8.532 80.562-13.938 120.626-14.656 54.156-0.938 107.812 7.376 157.75 23.844v-105.468h128.064l103.032 299.876c19.532 41.75 30.594 88.562 30.594 139.938 0 43.126-7.376 83.282-20.782 119.938 4 3.75 8.968 7.688 15.312 11.782 38.968 25.058 19.5 65.746-11.126 65.746z" />
<glyph unicode="&#xe95f;" glyph-name="scooter" data-tags="scooter" d="M240.333 695.333l39.583-0.75-87.583-288.75c12.083-3 23.5-6.583 34.25-10.667-10.583 4-21.75 7.5-33.583 10.5-76.833 17.25-140.333-7.917-193-67.75l344.167-162.333c2.167 17.083 3.167 33.083 2.833 48.167 0.083-2.167 0.25-4.417 0.25-6.667h319.75c0.083-68.583 55.75-124.083 124.333-124.083s124.25 55.583 124.333 124.083h104.667c7.25 142.25-59.917 251.667-177.583 262.167h158.333c12.583 0 22.833 10.333 22.833 22.833v25.083c0 12.417-10.167 22.5-22.5 22.5h-2v171.833c0 11.25-9.25 20.5-20.5 20.5h-295c-11.25 0-20.5-9.25-20.5-20.5v-171.75h-145.833c-15.417 0.5-23.583-6.5-23.667-21.917v-80.5c65.667-51.667 75.667-132.417 15.75-177.917h-97.167c-2.5 77.417-46.75 124.583-120.25 176.75l43.833 135.083c18.083 42 6.167 73.833-20.25 96.083 8.25 26.5 14.167 49.167 12.333 67.667l45.917-9.5c14.917-3.083 18.75-8.417 23.583 6 0.833 2.5 1.5 4.917 1.917 7.417 3.75 19.75 1.417 18.417-14.583 21.5l-49 9.5h-14.583l-18 10.083c-10.75 6.167-21.917 9.833-33.333 11.333l-15.75 1c-16.167 0-34.333 4.5-43.667-10.417-0.167-0.25-0.25-1.167-0.333-2.5-6.583-2.25-12.25-7.167-16.5-13.917-5.25-8.167-8.417-19.333-8.417-31.5s3.25-23.333 8.417-31.5c5.833-9.167 14.25-15 23.917-15.25 5.583-4 14.417-1.75 22.583-1.917v0 0zM859.417 600h103.833v-18.25h-103.833v18.25zM780.5 724.083h75v-81.5l-39.333 30.5-35.667-30.5v81.5zM859.417 552.5h103.833v-18.25h-103.833v18.25zM65.917 306.75l110.833-52.5-36 16.5c-24.75-5.25-43.25-27.25-43.25-53.5 0-30.25 24.5-54.75 54.75-54.75s54.75 24.5 54.75 54.75c0 9.333-2.333 18.083-6.417 25.833l75.667-35.833c-5.083-64-58.667-114.333-123.917-114.333-68.667 0-124.333 55.667-124.333 124.333-0.167 35.167 14.417 66.917 37.917 89.5v0 0zM210.583 768.083c0.5-16 1.583-36.583 2.333-50.417-1.333 1.167-2.667 2.667-3.833 4.583-3.5 5.417-5.583 13.167-5.583 21.833s2.167 16.417 5.583 21.833c0.5 0.75 1 1.5 1.5 2.167v0zM736.667 217.083h109.5c-0.083-30.167-24.583-54.5-54.75-54.5s-54.667 24.333-54.75 54.5v0 0z" />
<glyph unicode="&#xe960;" glyph-name="scooter-3" data-tags="scooter-3" d="M699.733 857.6c-22.251 0-41.012-14.293-48.067-34.133h-105.533c-0.144 0.002-0.313 0.003-0.483 0.003-18.853 0-34.137-15.284-34.137-34.137s15.284-34.137 34.137-34.137c0.17 0 0.339 0.001 0.508 0.004h117.174c20.008-47.502 53.467-136.27 53.467-204.8 0-136.533-102.4-204.8-170.667-204.8h-68.267c-37.717 0-68.267 30.549-68.267 68.267v68.267h-273.067c0 0-102.4-34.133-102.4-136.533 12.269-4.018 44.611-17.874 81.533-34.133-28.756-25.093-47.4-61.538-47.4-102.4 0-75.001 61.532-136.533 136.533-136.533s136.533 61.532 136.533 136.533c0 0.594-0.192 1.141-0.2 1.733 4.961-1.133 10.037-1.733 15.2-1.733h249.8c27.17 0 53.217 10.783 72.4 30l4.133 4.133h4.933c-2.88-10.983-4.933-22.289-4.933-34.133 0-75.001 61.532-136.533 136.533-136.533s136.533 61.532 136.533 136.533c0 16.48-3.435 32.13-8.867 46.8l43 21.467c0 0-47.407 97.153-145.667 127.4l9.133 9.133c-2.022 126.47-74.214 275.406-113.533 341.333h45.267v102.4h-85.333zM136.533 618.667c-0.144 0.002-0.313 0.003-0.483 0.003-18.853 0-34.137-15.284-34.137-34.137s15.284-34.137 34.137-34.137c0.17 0 0.339 0.001 0.508 0.004h273.041c0.144-0.002 0.313-0.003 0.483-0.003 18.853 0 34.137 15.284 34.137 34.137s-15.284 34.137-34.137 34.137c-0.17 0-0.339-0.001-0.508-0.004h-273.041zM194.333 276.267c27.623-12.506 45.474-20.659 68.467-31.2 6.429-10.434 10.267-22.671 10.267-36 0-38.107-30.16-68.267-68.267-68.267s-68.267 30.16-68.267 68.267c0 34.511 24.826 62.224 57.8 67.2zM760.2 243.2h118c5.759-10.039 9.267-21.572 9.267-34.133 0-38.107-30.16-68.267-68.267-68.267s-68.267 30.16-68.267 68.267c0 12.562 3.508 24.094 9.267 34.133z" />
<glyph unicode="&#xe961;" glyph-name="pizza" data-tags="pizza" d="M428.16 960c-3.040-0.24-6-0.72-9.6-1.92-7.2-2.4-12.96-7.6-16.64-12.8s-5.92-10.48-8.32-16.64c-7.84-20-27.44-79.040-37.12-106.88-0.4-1.040-0.32-2.16-0.64-3.2-0.24-0.4-0.48-0.88-0.64-1.28l-78.080-189.44-1.28-1.92c-0.56-1.2-0.96-2.56-1.28-3.84l-170.24-410.24c-0.24-0.64-0.48-1.28-0.64-1.92l-102.4-245.76c-3.28-7.68-1.6-16.64 4.32-22.56s14.88-7.6 22.56-4.32l846.72 350.080c0.64 0.16 1.28 0.4 1.92 0.64 20.16 6.48 90.88 30.88 109.44 37.12 11.92 4 24.32 10.080 32 23.040s7.040 29.84 0.64 44.8c-23.040 54.16-80.64 225.2-208 352.64-123.44 123.44-283.44 189.76-357.76 209.92-8.24 2.24-15.76 5.12-24.96 4.48zM434.56 919.040c-0.4-0.48-0.080-0.96 8.32-3.2 66.32-17.92 223.2-83.040 339.2-199.040 118.72-118.8 173.68-280.24 199.040-339.84 3.36-7.92 1.84-7.76 1.92-7.68s-2.24-2.64-9.6-5.12c-19.6-6.56-90.88-31.36-108.8-37.12-0.4-0.16-0.88-0.4-1.28-0.64 0.080 0 0.16 0.56-1.28 4.48-19.28 52.080-73.36 178.32-180.48 285.44-103.6 103.6-225.28 157.68-280.32 178.56-5.12 1.92-7.68 3.36-8.96 3.84 0.080 0.48 1.040 2.32 1.28 3.2 0.96 2 1.6 4.16 1.92 6.4 10 28.72 30.48 89.68 36.48 104.96 1.28 3.28 1.84 4.48 2.56 5.76zM376.32 760.32c3.52-1.44 7.12-2.64 10.24-3.84 51.76-19.6 169.040-71.76 266.24-168.96 100.48-100.48 152.8-222.56 170.88-271.36 0.56-1.44 1.28-3.040 1.92-4.48l-300.16-124.16c4.16 11.040 7.040 22.72 7.040 35.2 0 56.32-46.080 102.4-102.4 102.4s-102.4-46.080-102.4-102.4c0-40.88 24.64-75.76 59.52-92.16l-328.32-135.68 64 154.24c15.040-17.36 36.88-28.8 61.44-28.8 44.96 0 81.92 36.88 81.92 81.92s-36.96 81.92-81.92 81.92c-1.92 0-3.84-0.48-5.76-0.64l71.68 172.8c22.48-29.76 57.92-49.28 97.92-49.28 67.6 0 122.88 55.2 122.88 122.88s-55.28 122.88-122.88 122.88c-5.6 0-11.2-0.56-16.64-1.28zM348.16 611.84c45.52 0 81.92-36.4 81.92-81.92s-36.4-81.92-81.92-81.92c-36.88 0-67.6 23.84-78.080 56.96l40.96 97.92c11.12 5.68 23.76 8.96 37.12 8.96zM634.88 529.92c-44.96 0-81.92-36.88-81.92-81.92 0-6.64 0.4-13.040 1.92-19.2-25.76-18.64-42.88-49.12-42.88-83.2 0-56.32 46.080-102.4 102.4-102.4s102.4 46.080 102.4 102.4c0 19.84-6.080 38-16 53.76 10.080 13.76 16 30.48 16 48.64 0 45.040-36.96 81.92-81.92 81.92zM634.88 488.96c22.88 0 40.96-18.080 40.96-40.96 0-6.32-1.28-12.64-3.84-17.92-16.48 11.36-36.16 17.92-57.6 17.92-7.040 0-13.84-0.56-20.48-1.92 0 0.64 0 1.28 0 1.92 0 22.88 18.080 40.96 40.96 40.96zM614.4 407.040c16.56 0 31.2-6.8 42.24-17.28 1.52-2.32 3.44-4.24 5.76-5.76 8.4-10.48 13.44-23.76 13.44-38.4 0-34.16-27.28-61.44-61.44-61.44s-61.44 27.28-61.44 61.44c0 22.88 12.32 42.56 30.72 53.12 4.080 0.56 7.84 2.4 10.88 5.12 6.24 2.080 12.88 3.2 19.84 3.2zM430.080 284.16c34.16 0 61.44-27.28 61.44-61.44s-27.28-61.44-61.44-61.44c-34.16 0-61.44 27.28-61.44 61.44s27.28 61.44 61.44 61.44zM184.32 243.2c22.88 0 40.96-18.080 40.96-40.96s-18.080-40.96-40.96-40.96c-21.76 0-39.36 16.48-40.96 37.76l14.080 33.92c7.2 6.32 16.48 10.24 26.88 10.24z" />
<glyph unicode="&#xe962;" glyph-name="plus-18" data-tags="plus-18" d="M512 919.040c-259.906 0-471.040-211.134-471.040-471.040s211.134-471.040 471.040-471.040c259.906 0 471.040 211.134 471.040 471.040s-211.134 471.040-471.040 471.040zM512 878.080c237.769 0 430.080-192.311 430.080-430.080s-192.311-430.080-430.080-430.080c-237.769 0-430.080 192.311-430.080 430.080s192.311 430.080 430.080 430.080zM508.48 611.84c-73.605 0-94.6-52.582-94.6-82.36 0-40.305 31.552-61.297 45.56-66.56-17.531-7.004-56.080-26.287-56.080-80.6 0-45.548 28.050-98.12 110.4-98.12 31.539 0 106.88 15.77 106.88 98.12 0 56.074-38.568 75.337-57.84 80.6 12.268 5.243 43.8 26.255 43.8 66.56 0 15.77-5.243 82.36-98.12 82.36zM317.44 606.72c-8.765-49.111-43.028-58.639-92.16-60.4v-31.56l81.92-0.2v-225.28h40.96v317.44h-30.72zM510.24 576.8c47.309 0 54.32-33.31 54.32-49.080 0-17.531-8.753-52.56-52.56-52.56-54.313 0-57.82 43.795-57.8 52.56 0 7.025 3.468 49.080 56.040 49.080zM737.28 529.92v-61.44h-61.44v-40.96h61.44v-61.44h40.96v61.44h61.44v40.96h-61.44v61.44h-40.96zM512 441.88c52.572 0 66.6-47.352 66.6-61.36 0-29.778-22.793-63.040-66.6-63.040-33.3 0-68.36 17.472-68.36 63.040 0 26.296 17.549 61.36 68.36 61.36z" />
<glyph unicode="&#xe963;" glyph-name="family-planning-commission" data-tags="family-planning-commission" d="M513.544 894.768c-2.296 1.592-6.008 1.744-8.296 0.144l-112.912-79.592c-2.288-1.608-3.504-0.56-3.504 2.232v55.128c0 2.792-3.544 4.272-6.344 4.272h-73.352c-2.792 0-3.928-1.48-3.928-4.272v-113.696c0-2.792-2.416-6.36-4.712-7.96l-276.96-194.792c-2.288-1.608-2.16-3.56 0.632-3.56h123.096c2.792 0 4.992-0.952 4.992-3.744v-543.816c0.027-2.826 2.304-5.112 5.124-5.152h703.172c2.792 0 5.536 2.352 5.536 5.152v543.816c0 2.792 1.784 3.744 4.584 3.744h129c2.8 0 3.2 1.952 0.904 3.544l-487.032 338.552zM702.856 578.256c21.128 0 38.256-17.128 38.256-38.256s-17.128-38.256-38.256-38.256v0c-21.128 0-38.256 17.128-38.256 38.256s17.128 38.256 38.256 38.256v0zM522.080 352.072c15.354 0 27.8-12.446 27.8-27.8s-12.446-27.8-27.8-27.8v0c-15.354 0-27.8 12.446-27.8 27.8s12.446 27.8 27.8 27.8v0zM336.952 578.328c21.128 0 38.256-17.128 38.256-38.256s-17.128-38.256-38.256-38.256v0c-21.128 0-38.256 17.128-38.256 38.256s17.128 38.256 38.256 38.256v0zM786.816 283.496c-11.005 0-19.927 8.917-19.936 19.919v0.001l-0.024 121.744c-0.005 1.143-0.929 2.067-2.072 2.072v0h-4.224c-1.143-0.005-2.067-0.929-2.072-2.072v0-341.576c0-14.2-11.512-25.712-25.712-25.712s-25.712 11.512-25.712 25.712v0 200.984c0 1.464-0.68 2.080-2.128 2.080h-4.144c-1.448 0-2.128-0.608-2.128-2.080v-200.984c0-14.2-11.512-25.712-25.712-25.712s-25.712 11.512-25.712 25.712v0 341.576c-0.005 1.143-0.929 2.067-2.072 2.072v0h-4.224c-1.143-0.005-2.067-0.929-2.072-2.072v0l-16.36-98.936c-0.592-2.24-1.36-3.688-2.28-5.336-4.368-7.8-45.264-87.64-45.264-87.64-0.56-1-1.008-3.888-1.008-3.888s-0.080-147.88-0.2-149.024c-1.304-11.68-11.88-22.472-24.76-22.472-13.632 0-23.536 11.36-23.736 23.8l-0.024 63.024c-0.005 1.143-0.929 2.067-2.072 2.072v0h-3.112c-1.143-0.005-2.067-0.929-2.072-2.072v0l-0.008-62.696c-0.2-12.44-12.488-24.128-26.12-24.128s-24.464 11.752-24.664 24.192v149.744c0 1.144-0.464 2.88-1.040 3.872l-45.064 84.6c-1.379 2.377-2.481 5.129-3.16 8.045l-0.040 0.203c-0.080 0.216-30.032 97.776-30.032 97.776-0.176 0.408-1.064 2.12-3.144 2.12h-4.208c-1.184 0.016-1.88-0.992-1.568-2.128l59.64-195.176c0.32-1.136 0-3.128-2.080-3.128h-41.84c-1.184 0-2.048-0.96-2.048-2.144l0.008-142.248c0-14.2-11.512-25.712-25.712-25.712s-25.712 11.512-25.712 25.712v0l-0.008 142.248c0 1.184-0.96 2.144-2.144 2.144v0h-4.176c-1.184 0-2.144-0.96-2.144-2.144v0l-0.008-142.248c0-14.2-11.512-25.712-25.712-25.712s-25.712 11.512-25.712 25.712v0l0.008 142.248c0 1.184-0.864 2.144-2.048 2.144h-41.84c-2.080 0-2.4 1.992-2.080 3.128l59.64 195.176c0.312 1.136-0.376 2.152-1.568 2.128h-4.208c-1.41-0.016-2.615-0.876-3.135-2.097l-0.009-0.023-29.8-97.136c-2.736-7.967-10.164-13.59-18.905-13.59-11.015 0-19.944 8.929-19.944 19.944 0 1.901 0.266 3.741 0.763 5.482l-0.034-0.141 29.872 97.56c4.56 15.832 15.648 51.88 46.984 51.88h84.048c33.624 0 42.32-36.048 46.872-51.88 0 0 30.184-98.696 30.304-99.272 4.944-8.664 25.92-52.032 25.92-52.032 0.677-1.034 1.803-1.726 3.093-1.8h69.859c2.448 0 3.76 0.784 4.92 2.784l24.368 50.544c3.512 24.488 14.608 101.936 14.608 103.312 0 27.288 20.984 48.272 47.224 48.272h113.336c26.232 0 47.224-20.984 47.232-48.272l0.008-138.52c-0.023-11.010-8.948-19.927-19.959-19.936h-0.001z" />
<glyph unicode="&#xe964;" glyph-name="mapping-and-geography" data-tags="mapping-and-geography" d="M888.405 549.888l-2.389 3.328 2.048 6.443 5.376-0.981 4.992-2.859 0.725 0.469-1.707-4.48-4.437-2.219-4.608 0.299zM916.736 519.637l-2.048 7.125-43.563 28.288-10.539 0.64-9.387-10.325-4.693-12.843 3.883-7.083 66.347-5.803zM248.533 553.685l-4.992-18.048 16.256 18.475 1.323 5.76-6.997 2.731-5.589-8.917zM258.389 582.784l-0.043-0.981-27.904-13.141 35.285 6.997-7.339 7.125zM279.509 547.797l3.456 2.731 3.029 6.997-0.555-0.939 2.432 8.192-6.613 0.981-5.077-1.28-3.371-3.541-1.664-5.888 4.437-5.717 3.925-1.536zM836.821 673.451l-4.992 2.773-22.315 1.365-9.387 7.936 11.349 41.856-55.509-89.856-14.592-10.923 27.051-10.283 68.395 57.131zM889.173 424.405l55.253-87.808-44.587 82.987-10.667 4.821zM1024 448c0-282.795-229.205-512-511.957-512s-512.043 229.205-512.043 512 229.291 512 512.043 512 511.957-229.205 511.957-512zM651.52 654.805l0.171-43.563 8.875-22.315 20.949 4.864 1.152 14.421-31.147 46.592zM682.624 732.885l-7.424 2.987-15.872-3.541-15.147 3.328-0.64-18.816 1.664-4.139 20.437-1.963 13.099 10.197 3.883 11.947zM379.093 868.523l25.643 1.024 49.707 32.512c-15.872-2.005-31.403-4.779-46.72-8.32l-9.131-12.075-19.499-13.141zM347.307 853.589l16.853-13.397 21.589-2.901 13.355 12.843-8.021 1.195-33.323 18.944-9.643 1.877-0.811-18.56zM303.403 855.637l1.835-2.432 9.387 0.555 10.155 4.352 5.589 6.827-2.005 2.901c-8.491-3.669-16.683-8.021-24.96-12.203zM278.912 803.797l12.544-1.835 9.003 10.581 2.475 12.331-6.699 3.456-17.28-19.029-0.043-5.504zM187.179 768.683l22.528-12.843 33.109 15.275 25.813 27.776 0.64 25.003-22.315-4.395-2.261 0.811c-15.701-11.179-30.592-23.552-44.757-36.608l2.475-2.475-13.568-9.387-1.664-3.157zM61.141 406.912l-9.899 16.981c0-1.536 0.171-3.072 0.256-4.608l9.301-20.779 0.341 8.405zM515.755 208.043l-23.083 17.109-66.176 19.627-38.741 50.773-47.744 18.133-112.128 3.797-34.048 57.429-8.96 1.067-27.947-13.44-10.027 10.795-1.963 15.744 3.456 12.928 17.579 23.851 20.907 11.605 52.096-9.685 7.637-21.888 16.128-3.797-0.299 33.408 43.691 63.573 96.427 53.717-13.995 1.749-24.917 18.389 63.36 18.005 2.261-5.632-0.853-5.333-3.925-5.12-6.955-4.907 5.035-6.741 15.445-0.768 12.501 4.693-41.557 100.437-5.803-0.768-50.603 24.363-11.392-10.965-29.483-75.477-14.251 12.757-33.749 15.531-20.821 23.723 24.533 36.864 75.008 58.155 11.093 31.317 34.56-21.845 5.461-11.989-36.352-29.696 36.181-22.741 7.893 4.224 3.712-0.256 15.36 24.32-3.413 3.925 21.12 23.168-16.256 27.947-41.984 35.755 22.229 3.968-1.195 5.803-12.16 2.773-34.901-19.755 11.264 18.432-23.552-7.424-4.139-57.472-18.603-12.757-13.227 12.416 34.389 64.085-2.773 2.773-3.157 1.323h-3.584l-3.968-1.493-54.699-76.203 1.067 4.608 5.589 10.539-2.091 4.267-9.301-5.419-78.677-16.213-14.251 7.936c-76.717-81.924-123.833-192.387-123.833-313.854 0-1.261 0.005-2.52 0.015-3.779l-0.001 0.193c0-1.451 0.213-2.901 0.256-4.437l0.213 0.725 11.392-4.224 41.6-70.656 125.184-55.211 17.109-18.944 0.384-25.131-15.616-37.333-0.853-20.48 54.272-105.003 1.621-58.197c29.269-16.597 60.373-30.251 93.227-40.192l56.789 72.747 50.475 37.248 29.483 96.512zM326.613 721.109l-4.267 6.144-4.181 1.024-15.744-19.712 2.816-2.987 19.2-0.085 6.059 3.797-3.883 11.819zM518.827 679.808l130.091 112.555 30.549 81.792c-49.747 20.068-107.435 31.711-167.841 31.711-1.054 0-2.106-0.004-3.158-0.011l0.162 0.001c-7.936-0.085-15.701-0.896-23.552-1.365l-6.016-3.243-12.288-17.664-2.389-11.733 4.736-8.661 33.451-4.352 9.685-64.683-16.597-38.955-3.968-28.587 10.539-30.208 16.597-16.597zM954.752 324.437l3.584 2.176c10.112 38.613 15.872 78.976 15.573 120.789-0.357 30.89-3.633 60.796-9.565 89.734l0.52-3.035-2.475 5.035 0.896 3.371c-15.311 68.361-43.96 128.38-83.247 179.843l0.815-1.113-2.901-1.195-16.768 17.152 6.144 1.877c-14.819 17.49-30.246 33.282-46.715 47.927l-0.474 0.414-14.080 0.896-25.728-11.051-67.456-91.52 3.157-11.904 31.701-24.363v-12.544l-89.088-65.664 0.64-8.491 7.211-12.032 2.432-10.923-38.528-15.317-2.987-19.84 2.859-24.277-59.008-116.011-2.517-51.456 43.989-25.941 72.661 0.256 32.768-9.344 62.379-209.152c84.631 61.143 147.044 148.431 175.684 249.885l0.785 3.256-2.261 2.56zM892.629 483.115l-69.12 18.773-6.955 8.448 1.365-20.096-1.792-1.536-54.101 56.491-0.085-0.427-8.704-2.091-1.451 2.091 2.645-10.88 21.333-15.616 1.621-11.392-4.181-6.997-3.072-2.261-3.883-1.408-20.352 32-30.592-0.171-63.787-47.36 83.712 3.072 37.845-34.304 18.048-6.315 100.437 20.139 1.067 19.84z" />
<glyph unicode="&#xe965;" glyph-name="economic" data-tags="economic" d="M945.101 572.985c15.941 0.014 28.858 12.94 28.858 28.882 0 9.69-4.771 18.263-12.093 23.503l-429.261 304.162c-4.639 3.326-10.429 5.318-16.686 5.318-6.164 0-11.877-1.934-16.564-5.229l-436.924-303.382c-7.521-5.287-12.374-13.926-12.374-23.7 0-15.933 12.901-28.852 28.826-28.882l126.739-0.099c-3.338-6.445-5.294-14.068-5.294-22.15v-129.156c-8.971-9.602-14.478-22.54-14.478-36.762 0-0.021 0-0.042 0-0.065v-246.944c-19.429-1.355-35.919-12.758-44.418-28.999l-27.563 0.727c-31.729-0.035-57.442-25.748-57.477-57.474v-34.093c0.035-31.729 25.748-57.442 57.474-57.477h796.225c31.734 0.029 57.454 25.743 57.49 57.474v34.093c-0.035 31.733-25.755 57.45-57.487 57.477h-18.955c-8.191 14.897-22.771 25.411-39.951 27.889l3.153 247.331c0 0.030 0 0.065 0 0.098 0 14.21-5.514 27.131-14.519 36.741l0.029 129.142c-0.002 7.892-1.868 15.348-5.181 21.954l110.428-0.38zM703.074 573.17c-3.211-6.355-5.093-13.855-5.095-21.793v-129.127c-5.356-5.797-9.449-12.846-11.786-20.652-18.649 84.281-85.596 133.99-164.138 133.99-80.033 0-147.987-51.598-172.521-123.319-4.549 7.921-10.794 14.391-18.275 19.071l10.967 120.068c-0.005 8.048-1.943 15.643-5.373 22.347l366.219-0.586zM442.455 309.893h30.908c2.336-26.545 15.2-41.794 38.563-45.722v89.069c-43.012 8.588-64.524 29.589-64.524 62.932 0 18.815 5.815 33.927 17.447 45.41 11.633 11.484 27.317 18.119 47.075 19.934v24.544h17.063v-24.544c37.817-2.858 58.583-22.147 62.311-57.851h-31.081c-1.714 19.76-12.129 30.981-31.231 33.628v-80.146c26.335-5.42 44.241-13.297 53.687-23.662 9.458-10.34 14.18-24.457 14.18-42.291 0-18.591-5.99-34.772-17.996-48.517s-28.634-21.214-49.872-22.394v-24.693h-17.063v24.395c-43.334 4.734-66.499 28.061-69.471 69.905zM356.705 138.603v137.747c29.018-62.275 92.113-105.436 165.348-105.436 70.116 0 130.924 39.618 161.435 97.618v-129.906l-326.783-0.023zM528.988 264.172v85.252c14.553-3.84 24.321-8.711 29.292-14.665 4.983-5.953 7.506-14.466 7.506-25.515 0-26.967-12.267-41.994-36.798-45.074zM511.926 380.655c-9.98 2.547-18.081 6.513-24.297 11.943s-9.321 14.068-9.321 25.974c0 22.083 11.197 35.108 33.617 39.035v-76.951z" />
<glyph unicode="&#xe966;" glyph-name="educate" data-tags="educate" d="M513.147 375.292c-15.947 0-39.468 1.747-61.040 10.031l-172.596 66.501h-84.542v-103.565c0-31.84 23.684-67.975 52.884-80.663l208.987-90.967c29.2-12.688 76.605-12.743 105.841-0.127l211.263 91.222c29.218 12.615 52.921 48.697 52.921 80.537v103.565h-93.298l-152.954-64.48c-18.386-7.773-42.38-12.051-67.466-12.051zM46.313 587.009l416.19-160.363c29.728-11.433 77.605-10.686 106.951 1.693l397.458 167.536v-247.18l-24.558-81.938h71.015l-25.413 82.794v256.319h-0.71c17.167 11.833 13.162 26.596-12.252 35.681l-404.357 143.888c-30.001 10.704-78.479 10.25-108.299-0.946l-415.844-156.449c-29.819-11.214-29.891-29.6-0.182-41.033z" />
<glyph unicode="&#xe967;" glyph-name="legislative" data-tags="legislative" d="M50.027 322.931c25.348-22.012 54.696-33.018 88.048-33.018s62.368 11.006 87.048 33.018 39.021 49.693 43.024 83.046h-262.144c4.002-33.352 18.676-61.034 44.024-83.046zM700.385 159.842h-382.21c-5.337 0-10.005-2.001-14.008-6.003s-6.003-9.005-6.003-15.008 2.001-11.006 6.003-15.008 8.671-6.003 14.008-6.003h382.21c13.341 0 20.011 7.004 20.011 21.012s-6.67 21.012-20.011 21.012zM300.165 107.813h418.23v-60.033h-418.23zM799.439 322.931c24.68-22.012 53.695-33.018 87.048-33.018s62.7 11.006 88.048 33.018 40.022 49.693 44.024 83.046h-262.144c4.002-33.352 18.344-61.034 43.024-83.046zM1010.555 445.999l-106.058 148.081h56.031c8.004 0 14.342 2.667 19.010 8.004s7.004 11.34 7.004 18.010-2.335 12.673-7.004 18.010-11.006 8.004-19.010 8.004h-304.167c-9.339 24.013-24.013 45.025-44.024 63.035s-43.358 29.016-70.038 33.018v80.044c0 6.67-2.667 12.673-8.004 18.010s-11.34 8.004-18.010 8.004h-6.003c-6.672 0-12.343-2.667-17.009-8.004-4.669-5.337-7.004-11.34-7.004-18.010v-80.044c-26.681-4.002-50.362-15.008-71.039-33.018s-35.686-39.021-45.025-63.035h-304.167c-6.67 0-12.673-2.667-18.010-8.004s-8.004-11.34-8.004-18.010 2.667-12.673 8.004-18.010 11.34-8.004 18.010-8.004h54.030l-106.058-148.081h-14.008v-26.014h274.151v26.014h-14.008l-106.058 148.081h248.136c0 5.337 0.666 11.34 2.001 18.010 1.335 2.667 2.001 4.669 2.001 6.003 4.002 20.011 13.341 37.355 28.015 52.029s32.018 24.68 52.029 30.016v-282.155h-2.001c-1.335-50.694-13.341-98.054-36.020-142.078s-52.695-79.378-90.049-106.058h312.171c-38.687 26.681-69.372 62.034-92.051 106.058s-34.685 91.384-36.020 142.078v282.155c18.678-5.337 35.355-15.342 50.027-30.016 14.674-14.674 24.013-32.018 28.015-52.029 1.335-1.335 2.001-3.336 2.001-6.003 1.335-6.67 2.001-12.673 2.001-18.010h246.135l-106.058-148.081h-14.008v-28.015h274.151v28.015h-14.008zM126.069 445.999h-86.047l86.047 118.065v-118.065zM234.129 445.999h-86.047v118.065l86.047-118.065zM876.481 445.999h-86.047l86.047 118.065v-118.065zM898.494 445.999v118.065l86.047-118.065h-86.047zM137.075 656.114c7.338 0 13.341 2.335 18.010 7.004s7.004 10.672 7.004 18.010-2.335 13.341-7.004 18.010-10.672 7.004-18.010 7.004-13.341-2.335-18.010-7.004-7.004-10.672-7.004-18.010 2.335-13.341 7.004-18.010 10.672-7.004 18.010-7.004zM887.488 656.114c7.338 0 13.341 2.667 18.010 8.004s7.004 11.34 7.004 18.010-2.335 12.673-7.004 18.010-10.672 8.004-18.010 8.004-13.341-2.667-18.010-8.004-7.004-11.34-7.004-18.010 2.335-12.673 7.004-18.010 10.672-8.004 18.010-8.004z" />
<glyph unicode="&#xe968;" glyph-name="drug" data-tags="drug" d="M921.268 293.066c-33.774 36.31-79.53 58.41-128.838 62.232l-1.274 0.098-557.142 0.546c-108.564 0-196.888-88.324-196.888-196.89 0-108.564 88.324-196.888 196.888-196.888l558.414 0.646c49.308 3.82 95.064 25.918 128.84 62.228 33.97 36.518 52.678 84.112 52.678 134.014s-18.708 97.494-52.678 134.014zM511.22 29.25l-277.23-0.272c-71.708 0.014-130.048 58.36-130.048 130.072 0 71.722 58.35 130.074 130.038 130.074l277.24-0.272v-259.602zM124.212 418.842c33.542-24.49 74.794-37.978 116.154-37.982h0.008c14.17 0 28.404 1.554 42.304 4.62l1.246 0.274 533.334 161.118c103.896 31.496 162.798 141.646 131.3 245.544-12.502 41.242-37.462 76.444-72.186 101.806-33.552 24.508-74.812 38.004-116.176 38.004-20.413-0.011-40.096-3.125-58.606-8.895l1.396 0.375-534.18-162.618c-46.080-17.962-83.456-52.386-105.244-96.932-21.914-44.802-26.008-95.778-11.532-143.534 12.504-41.236 37.464-76.43 72.182-101.78zM722.404 859.772c11.305 3.566 24.306 5.627 37.786 5.638h0.006c56.768 0 107.93-37.988 124.42-92.378 20.806-68.638-18.106-141.408-86.712-162.206l-265.39-80.172-75.316 248.432 265.206 80.686z" />
<glyph unicode="&#xe969;" glyph-name="airplane" data-tags="airplane" d="M855.407 506.513l-199.253 85.76-44.373 18.773c-6.827 3.413-12.8 12.373-12.8 20.053v130.56c0 40.96-30.293 89.6-66.987 108.373-12.8 6.4-28.16 6.4-40.96 0-36.267-18.773-66.56-67.84-66.56-108.8v-130.56c0-7.68-5.973-16.64-12.8-20.053l-243.2-104.534c-26.88-11.093-48.64-44.8-48.64-73.813v-56.32c0-36.267 27.307-54.187 61.013-39.68l213.76 92.16c16.64 7.253 30.293-1.707 30.293-20.053v-124.16c0-9.813-5.547-23.893-12.373-30.72l-98.987-99.413c-10.24-10.24-14.933-30.293-10.24-44.8l19.2-58.027c7.68-25.173 36.267-37.12 59.733-25.173l101.547 85.333c15.36 13.227 40.533 13.227 55.893 0l101.547-85.333c23.467-11.52 52.053 0 60.587 25.173l19.2 58.027c4.693 14.080 0 34.56-10.24 44.8l-98.987 99.413c-7.253 6.827-12.8 20.907-12.8 30.72v124.16c0 18.347 13.227 26.88 30.293 20.053l213.76-92.16c33.707-14.507 61.013 3.413 61.013 39.68v56.32c0 29.013-21.76 62.72-48.64 74.24z" />
<glyph unicode="&#xe96a;" glyph-name="headphones" data-tags="headphones" d="M512 746.667c-164.949 0-298.667-133.718-298.667-298.667v0-42.667h88.747c28.587 0 42.667 0 53.76-5.547 9.813-5.12 17.493-12.8 22.613-22.613 5.547-10.667 5.547-25.173 5.547-53.76v-177.493c0-28.587 0-42.667-5.547-53.76-5.12-9.813-12.8-17.493-22.613-22.613-10.667-5.547-25.173-5.547-53.76-5.547h-37.547c-47.787 0-71.68 0-89.6 9.387-16.211 8.257-29.118 21.027-37.323 36.652l-0.224 0.468c-8.533 17.493-9.387 39.253-9.387 81.493v256c0 212.077 171.923 384 384 384s384-171.923 384-384v0-256c0-42.24-0.427-64-9.387-81.067-8.257-16.211-21.027-29.118-36.652-37.323l-0.468-0.224c-18.347-9.387-42.24-9.387-90.027-9.387h-37.547c-28.587 0-42.667 0-53.76 5.547-9.803 5.026-17.588 12.81-22.479 22.326l-0.134 0.288c-5.547 10.667-5.547 25.173-5.547 53.76v177.493c0 28.587 0 42.667 5.547 53.76 5.12 9.813 12.8 17.493 22.613 22.613 10.667 5.547 25.173 5.547 53.76 5.547h88.747v42.667c0 164.949-133.718 298.667-298.667 298.667v0z" />
<glyph unicode="&#xe96b;" glyph-name="kidsmode" data-tags="kidsmode" d="M224 874.667c0.017 0 0.037 0 0.057 0 72.645 0 135.313-42.718 164.254-104.405l0.468-1.11c36.619 12.792 78.833 20.182 122.773 20.182 0.158 0 0.315 0 0.473 0h-0.025c43.093 0 84.565-7.083 123.221-20.181 29.431 62.739 92.069 105.409 164.673 105.409 100.148 0 181.333-81.186 181.333-181.333 0-72.604-42.67-135.243-104.301-164.205l-1.109-0.468c13.099-38.656 20.181-80.128 20.181-123.221-0.212-211.917-172.053-383.628-384-383.628-212.077 0-384 171.923-384 384 0 43.966 7.389 86.206 20.993 125.547l-0.811-2.698c-62.864 29.383-105.638 92.086-105.638 164.779 0 100.148 81.186 181.333 181.333 181.333 0.043 0 0.087 0 0.13 0h-0.007zM512 106.667c106.027 0 192 64.64 192 170.667s-85.973 213.333-192 213.333-192-107.307-192-213.333 85.973-170.667 192-170.667zM392.533 567.467v0c0 28.277-22.923 51.2-51.2 51.2s-51.2-22.923-51.2-51.2v0c0-28.277 22.923-51.2 51.2-51.2s51.2 22.923 51.2 51.2zM682.667 516.267c28.277 0 51.2 22.923 51.2 51.2s-22.923 51.2-51.2 51.2v0c-28.277 0-51.2-22.923-51.2-51.2s22.923-51.2 51.2-51.2v0zM586.667 362.667c0 23.552-33.451 42.667-74.667 42.667s-74.667-19.115-74.667-42.667c0-23.552 33.451-64 74.667-64s74.667 40.448 74.667 64z" />
<glyph unicode="&#xe96c;" glyph-name="call" data-tags="call-svgrepo-com" d="M384 277.333c-263.936 263.979-251.307 463.616-130.56 554.155l26.752 19.925c10.354 7.689 23.387 12.309 37.499 12.309 21.522 0 40.534-10.745 51.965-27.163l0.136-0.207 67.371-96.939c7.16-10.191 11.443-22.856 11.443-36.521 0-19.289-8.534-36.586-22.032-48.32l-0.078-0.066-64.853-56.064c-16.213-14.037-24.149-35.328-16.853-55.509 13.483-37.547 46.208-103.808 123.605-181.163 77.397-77.397 143.616-110.123 181.163-123.648 20.224-7.253 41.515 0.64 55.552 16.896l56.064 64.768c11.8 13.576 29.097 22.11 48.386 22.11 13.665 0 26.33-4.283 36.725-11.579l-0.205 0.136 97.109-67.413c16.622-11.54 27.368-30.532 27.368-52.033 0-14.072-4.603-27.069-12.385-37.567l0.121 0.17-20.053-27.008c-90.496-120.661-290.219-133.248-554.24 130.731z" />
<glyph unicode="&#xe96d;" glyph-name="bus" data-tags="bus-svgrepo-com" d="M128 53.333v480l-33.28 33.28c-6.016 6.016-9.387 14.165-9.387 22.613v82.773c0 17.673 14.327 32 32 32h10.667v42.453c0 49.963 34.731 93.141 84.053 101.248 73.856 12.16 186.88 26.965 299.947 26.965s226.091-14.805 299.947-26.965c49.323-8.107 84.053-51.285 84.053-101.248v-42.453h10.667c17.673 0 32-14.327 32-32v-82.775c-0.008-8.832-3.594-16.826-9.387-22.612l-33.28-33.28v-480c0-17.673-14.327-32-32-32h-68.906c-0.002 0-0.005 0-0.007 0-15.82 0-28.958 11.479-31.567 26.752l-16.853 101.248h-469.333l-16.853-101.248-0.027-0.19c-2.582-15.083-15.72-26.562-31.54-26.562-0.002 0-0.005 0-0.007 0h-68.907c-17.664 0-32 14.336-32 32zM341.333 341.333v0c0 35.346-28.654 64-64 64s-64-28.654-64-64v0c0-35.346 28.654-64 64-64s64 28.654 64 64zM746.667 277.333c35.346 0 64 28.654 64 64s-28.654 64-64 64v0c-35.346 0-64-28.654-64-64s28.654-64 64-64v0zM213.333 740.48v-249.813h597.333v249.813c0 15.787-11.52 29.227-27.221 31.232-49.749 6.4-160.597 18.859-271.445 18.859s-221.696-12.416-271.445-18.859c-15.444-2.095-27.222-15.196-27.222-31.048 0-0.065 0-0.129 0.001-0.194v0.010z" />
<glyph unicode="&#xe96e;" glyph-name="basketball" data-tags="basketball-svgrepo-com" d="M322.576 923.632c-62.848-24.992-121.728-62.832-172.576-113.68-2.96-2.944-5.712-6.032-8.592-9.024 22.176-61.296 50.016-120.992 83.872-178.128 64.944 89.44 97.408 195.136 97.296 300.832zM1021.184 501.088c-156.016 24.336-321.072-23.504-441.28-143.696-19.232-19.232-36.592-39.664-52.128-60.992 117.808-82.88 248.72-138.848 384.336-167.92 86.256 107.792 122.624 242.288 109.072 372.608zM432.8-57.856c156-24.304 321.072 23.536 441.28 143.728 4.928 4.928 9.632 9.984 14.304 15.040-133.504 30.832-262.192 87.216-378.544 168.992-63.056-99.024-88.784-214.912-77.040-327.76zM204.336 595.936c-34.752 57.136-63.68 116.752-86.96 178.080-78.32-94.544-117.44-210.608-117.312-326.656 62.816 24.992 121.712 62.848 172.56 113.68 11.232 11.248 21.728 22.912 31.712 34.896zM222.096 567.52c-8.56-9.92-17.44-19.696-26.848-29.104-56.864-56.848-123.216-98.336-193.936-124.768 7.952-119.392 57.44-236.512 148.688-327.76 0.432-0.448 0.912-0.864 1.36-1.312 33.456 125.328 89.52 245.824 168.448 355.008-36.128 40.72-68.752 83.472-97.712 127.936zM483.776 288.624c-41.408 30.96-81.184 65.072-118.832 102.72-7.888 7.888-15.328 16.048-22.928 24.112-77.984-109.248-132.768-229.904-164.128-355.312 65.632-56.656 142.144-93.904 222.176-111.744-10.112 117.376 17.808 237.44 83.712 340.224zM361.328 441.584c8.64-9.264 17.216-18.576 26.256-27.616 36.192-36.192 74.448-69.008 114.24-98.88 16.528 22.72 34.992 44.448 55.472 64.928 125.264 125.264 296.4 176.592 459.328 154.16-16.992 99.92-63.664 195.76-140.176 273.28-153.904-49.776-298.736-135.488-420.976-257.712-34.336-34.336-65.536-70.576-94.144-108.16zM243.44 593.728c28.368-44.48 60.384-87.296 96.112-128.032 28.48 36.992 59.376 72.736 93.296 106.656 121.504 121.52 264.656 208.112 417.008 260.112-139.008 122.336-328.368 156.48-495.568 102.48 2.624-120.112-34.32-240.864-110.848-341.216z" />
<glyph unicode="&#xe96f;" glyph-name="gamepad" data-tags="gamepad-svgrepo-com" d="M736 768c0-8.837-7.163-16-16-16s-16 7.163-16 16c0 8.837 7.163 16 16 16s16-7.163 16-16zM736 544c0-8.837-7.163-16-16-16s-16 7.163-16 16c0 8.837 7.163 16 16 16s16-7.163 16-16zM624 656c0-8.837-7.163-16-16-16s-16 7.163-16 16c0 8.837 7.163 16 16 16s16-7.163 16-16zM320 336h-32v-80h-80v-32h80v-80h32v80h80v32h-80zM704 960c-104.928 0-197.776-50.656-256.032-128.72-18.208-24.368-33.024-51.408-43.76-80.448-9.28-30.656-23.68-59.36-42.112-85.040l-280.144 280.144c-18.752 18.752-49.136 18.736-67.888 0-18.736-18.752-18.752-49.136 0-67.888l280.224-280.208c-25.056-18-52.992-32.112-82.96-41.168-0.784-0.24-1.36-0.64-2.16-0.88-29.024-10.736-56.080-25.568-80.448-43.76-78.080-58.256-128.72-151.104-128.72-256.032 0-176.736 143.264-320 320-320 104.928 0 197.776 50.656 256.032 128.72 18.208 24.368 33.024 51.408 43.76 80.448 27.808 91.824 103.2 167.232 195.024 195.024 29.024 10.736 56.080 25.568 80.448 43.76 78.096 58.272 128.736 151.12 128.736 256.048 0 176.736-143.264 320-320 320zM36.704 900.672c-6.272 6.272-6.272 16.368 0 22.624 6.256 6.272 16.352 6.272 22.624 0l282.624-282.64-22.544-22.688-282.704 282.704zM432 208c0-8.848-7.152-16-16-16h-64v-64c0-8.848-7.152-16-16-16h-64c-8.848 0-16 7.152-16 16v64h-64c-8.848 0-16 7.152-16 16v64c0 8.848 7.152 16 16 16h64v64c0 8.848 7.152 16 16 16h64c8.848 0 16-7.152 16-16v-64h64c8.848 0 16-7.152 16-16v-64zM500.688 414.064l-33.936-33.936c-6.272-6.272-16.368-6.272-22.624 0-6.272 6.256-6.272 16.352 0 22.624l33.936 33.936c6.256 6.256 16.368 6.256 22.624 0s6.256-16.368 0-22.624zM579.872 493.248l-33.936-33.936c-6.256-6.256-16.368-6.256-22.624 0s-6.256 16.368 0 22.624l33.936 33.936c6.256 6.256 16.368 6.256 22.624 0s6.256-16.368 0-22.624zM608 608c-26.512 0-48 21.504-48 48s21.488 48 48 48 48-21.504 48-48-21.488-48-48-48zM720 496c-26.496 0-48 21.488-48 48s21.504 48 48 48 48-21.488 48-48-21.504-48-48-48zM720 720c-26.496 0-48 21.488-48 48s21.504 48 48 48 48-21.488 48-48-21.504-48-48-48zM832 608c-26.512 0-48 21.504-48 48s21.488 48 48 48 48-21.504 48-48-21.488-48-48-48zM848 656c0-8.837-7.163-16-16-16s-16 7.163-16 16c0 8.837 7.163 16 16 16s16-7.163 16-16z" />
<glyph unicode="&#xe970;" glyph-name="glasses" data-tags="glasses-svgrepo-com" d="M96 384v480h32c26.512 0 48 21.504 48 48s-21.488 48-48 48h-64c-35.344 0-64-28.656-64-64v-555.536c23.456 26.624 57.712 43.536 96 43.536zM960 960h-64c-26.512 0-48-21.504-48-48s21.488-48 48-48h32v-480c38.288 0 72.544-16.912 96-43.536v555.536c0 35.344-28.656 64-64 64zM928 352h-288c-9.536 0-18.688-1.536-27.376-4.128-27.504 22.496-62.528 36.128-100.848 36.128-38.256 0-73.216-13.6-100.72-36.032-8.592 2.544-17.632 4.032-27.056 4.032h-288c-53.008 0-96-42.992-96-96v-128c0-106.032 85.968-192 192-192h96c106.032 0 192 85.968 192 192v128c0 7.392-0.928 14.56-2.496 21.472 9.952 6.528 21.68 10.528 34.496 10.528s24.544-4 34.496-10.528c-1.568-6.912-2.496-14.080-2.496-21.472v-128c0-106.032 85.968-192 192-192h96c106.032 0 192 85.968 192 192v128c0 53.008-42.992 96-96 96zM288 0c-8.848 0-16 7.152-16 16s7.152 16 16 16c53.008 0 96 42.992 96 96 0 8.848 7.152 16 16 16s16-7.152 16-16c0-70.688-57.312-128-128-128zM832 0c-8.848 0-16 7.152-16 16s7.152 16 16 16c53.008 0 96 42.992 96 96 0 8.848 7.152 16 16 16s16-7.152 16-16c0-70.688-57.312-128-128-128z" />
<glyph unicode="&#xe971;" glyph-name="bottle" data-tags="bottle-1-svgrepo-com" d="M448 832l-32-32v-132.032c-55.207-14.21-96-64.325-96-123.968v-352c0-70.694 57.308-128 128-128h128c70.694 0 128 57.306 128 128v352c0 59.643-40.794 109.758-96 123.968v132.032l-32 32h-128zM640 192c0-35.345-28.655-64-64-64h-128c-35.346 0-64 28.655-64 64v32h256v-32zM640 288h-256v160h256v-160zM384 544c0 35.346 28.654 64 64 64h32v160h64v-160h32c35.345 0 64-28.654 64-64v-32h-256v32z" />
<glyph unicode="&#xe972;" glyph-name="car-1" data-tags="car-1-svgrepo-com" d="M711.842 736l111.177-224h40.981v-64h-32v-288l-32-32h-128l-32 32v44.8h-256v-44.8l-32-32h-128l-32 32v288h-32v64h40.981l111.177 224h399.684zM751.569 512l-79.411 160h-320.316l-79.412-160h479.139zM256 448v-256h64v44.8l32 32h320l32-32v-44.8h64v256h-512zM368 320c26.51 0 48 21.491 48 48s-21.49 48-48 48c-26.51 0-48-21.491-48-48s21.49-48 48-48zM704 368c0-26.509-21.491-48-48-48s-48 21.491-48 48c0 26.509 21.491 48 48 48s48-21.491 48-48z" />
<glyph unicode="&#xe973;" glyph-name="cook-cap" data-tags="cook-cap-svgrepo-com" d="M384 640h-32c-70.692 0-128-57.308-128-128 0-70.694 57.308-128 128-128h32v-96h256v96h32c70.694 0 128 57.306 128 128 0 70.692-57.306 128-128 128h-32c0 70.692-57.306 128-128 128s-128-57.308-128-128zM330.509 702.811c26.019 75.193 97.45 129.189 181.491 129.189s155.473-53.996 181.491-129.19c95.923-10.683 170.509-92.037 170.509-190.81 0-95.134-69.193-174.11-160-189.346v-194.654l-32-32h-320l-32 32v194.654c-90.807 15.236-160 94.212-160 189.346 0 98.774 74.586 180.127 170.509 190.811zM384 160h256v64h-256v-64z" />
<glyph unicode="&#xe974;" glyph-name="bed" data-tags="bed-2-svgrepo-com" d="M576 736c35.345 0 64-28.654 64-64h-256c0 35.346 28.654 64 64 64h128zM640 782.876v17.124h64v-154.807l96-288v-261.193h-64v96h-448v-96h-64v261.193l96 288v154.807h64v-17.124c18.827 10.891 40.686 17.124 64 17.124h128c23.313 0 45.171-6.233 64-17.124zM648.934 608h-273.87l-74.667-224h423.203l-74.667 224zM736 320h-448v-64h448v64z" />
<glyph unicode="&#xe975;" glyph-name="bicycle" data-tags="bicycle-svgrepo-com" d="M733.632 704h-125.632v-64h66.368l9.843-128h-300.211v32h32v64h-160v-64h64v-59.52l-19.699-68.945c-4.060 0.307-8.162 0.465-12.301 0.465-88.366 0-160-71.633-160-160s71.634-160 160-160c77.407 0 141.973 54.967 156.8 128h91.337l64 224h88.998l2.931-38.106c-67.004-19.093-116.066-80.764-116.066-153.894 0-88.367 71.633-160 160-160s160 71.633 160 160c0 81.634-61.137 148.988-140.117 158.775l-22.251 289.225zM282.097 351.821l-24.866-87.031 61.537-17.579 24.867 87.031c24.431-17.399 40.364-45.961 40.364-78.242 0-53.018-42.981-96-96-96s-96 42.982-96 96c0 51.038 39.827 92.77 90.097 95.821zM361.845 397.978l14.292 50.022h157.439l-45.713-160h-43.063c-9.724 47.902-40.846 88.030-82.955 109.978zM697.152 343.812l6.942-90.266 63.812 4.907-6.946 90.27c40.917-10.987 71.040-48.337 71.040-92.723 0-53.018-42.982-96-96-96s-96 42.982-96 96c0 39.194 23.484 72.9 57.152 87.812z" />
<glyph unicode="&#xe976;" glyph-name="bar" data-tags="bar-chocolate-svgrepo-com" d="M648.435 243.686l-362.034 362.038-45.255-45.255 384.667-384.666 45.252 45.252-22.63 22.63zM919.962 469.961v45.252l-339.409 339.412h-45.257l-203.643-203.644-22.625 22.625h-45.255l-90.51-90.51v-45.255l22.624-22.625-90.513-90.513v-45.252l339.412-339.413h45.252l90.513 90.513 22.63-22.63h45.257l90.509 90.509v45.257l-22.63 22.63 203.644 203.644zM444.791 537.843l-67.883 67.884 67.879 67.88 67.883-67.883-67.878-67.881zM603.183 605.723l67.878 67.881 67.887-67.884-67.883-67.881-67.883 67.884zM557.926 560.468l67.883-67.886-67.878-67.878-67.883 67.883 67.878 67.882zM671.066 447.33l67.878-67.878-67.878-67.883-67.878 67.878 67.878 67.883zM784.201 424.704l-67.878 67.878 67.878 67.883 67.883-67.879-67.883-67.883zM557.926 650.978l-67.883 67.883 67.883 67.881 67.883-67.883-67.883-67.881zM535.296 175.804l-67.883-67.883-294.156 294.157 67.882 67.883 294.156-294.157z" />
<glyph unicode="&#xe977;" glyph-name="ambulance" data-tags="ambulance-svgrepo-com" d="M503.061 736l32-96h155.055l101.619-169.365 104.265-69.508v-209.126h-97.135c-7.761-54.276-54.443-96-110.865-96s-103.104 41.724-110.865 96h-98.27c-7.761-54.276-54.441-96-110.865-96s-103.102 41.724-110.866 96h-129.134v448h200.934l32 96h142.127zM467.601 640l-10.667 32h-49.872l-10.667-32h71.205zM789.222 256h42.778v110.874l-73.69 49.126h-246.31v160h-320v-320h74.778c17.975 37.841 56.544 64 101.222 64s83.247-26.159 101.222-64h117.555c17.975 37.841 56.546 64 101.222 64s83.247-26.159 101.222-64zM653.884 576h-77.884v-96h135.484l-57.6 96zM416 208c0 26.509-21.49 48-48 48s-48-21.491-48-48c0-26.509 21.49-48 48-48s48 21.491 48 48zM736 208c0 26.509-21.491 48-48 48s-48-21.491-48-48c0-26.509 21.491-48 48-48s48 21.491 48 48zM320 544v-64h-64v-64h64v-64h64v64h64v64h-64v64h-64z" />
<glyph unicode="&#xe978;" glyph-name="birthday" data-tags="birthday-cake-svgrepo-com" d="M236.16-23.68h551.68c13.12 0 24 10.88 24 24v492.8c0 13.12-10.88 24-24 24h-85.12v172.16c0 6.4-2.56 12.48-6.72 16.64 13.76 20.8 21.44 45.76 21.44 71.36 0 43.2-21.44 83.2-56.96 107.84-8.32 5.44-18.88 5.44-27.2 0-35.84-24.32-56.96-64.64-56.96-107.84 0-25.6 7.68-50.24 21.44-71.36-4.16-4.48-6.72-10.24-6.72-16.64v-172.16h-176.64v172.16c0 6.4-2.56 12.48-6.72 16.64 13.76 20.8 21.44 45.76 21.44 71.36 0 43.2-21.44 83.2-56.96 107.84-8.32 5.44-18.88 5.44-27.2 0-35.84-24.32-56.96-64.64-56.96-107.84 0-25.6 7.68-50.24 21.44-71.36-4.16-4.48-6.72-10.24-6.72-16.64v-172.16h-66.24c-13.12 0-24-10.88-24-24v-492.8c0-13.12 10.88-24 24-24zM763.84 144.96h-503.68v218.56c4.48-3.2 8.64-7.36 14.080-12.48 14.72-14.72 34.56-34.56 72-34.56s57.6 20.16 72 34.56c13.76 13.76 21.12 20.48 38.080 20.48s24.32-6.72 38.080-20.48c14.72-14.72 34.56-34.56 72-34.56s57.6 20.16 72.32 34.56c13.76 13.76 21.44 20.48 38.080 20.48s24.32-6.72 38.4-20.48c11.2-11.2 25.28-25.28 48.32-31.36v-174.72zM763.84 24.32h-503.68v72.64h503.68v-72.64zM646.72 833.92c14.4-15.36 22.72-35.52 22.72-56.64s-8.32-41.28-22.72-56.64c-14.4 15.36-22.72 35.52-22.72 56.64s8.32 41.28 22.72 56.64zM638.72 665.28h16v-148.16h-16v148.16zM358.4 833.92c14.4-15.36 22.72-35.52 22.72-56.64s-8.32-41.28-22.72-56.64c-14.4 15.36-22.72 35.52-22.72 56.64s8.32 41.28 22.72 56.64zM350.4 665.28h16v-148.16h-16v148.16zM326.4 469.12h437.44v-96.64c-4.48 3.2-8.96 7.36-14.4 12.8-14.72 14.72-34.56 34.56-72.32 34.56s-57.6-20.16-72.32-34.56c-13.76-13.76-21.44-20.48-38.4-20.48s-24.32 6.72-38.080 20.48c-14.72 14.72-34.56 34.56-72 34.56s-57.6-20.16-72-34.56c-13.76-13.76-21.44-20.48-38.080-20.48s-24.32 6.72-38.080 20.48c-11.2 11.2-25.28 25.28-48 31.36v52.48h66.24z" />
<glyph unicode="&#xe979;" glyph-name="shop" data-tags="shop-svgrepo-com" d="M101.12-23.040h821.76c13.12 0 24 10.88 24 24v683.2c0 13.12-10.88 24-24 24h-186.56v186.88c0 13.12-10.88 24-24 24h-404.16c-13.12 0-24-10.88-24-24v-186.88h-183.040c-13.12 0-24-10.88-24-24v-683.2c0-13.12 10.88-24 24-24zM410.56 24.96v364.16h202.88v-364.16h-202.88zM898.88 24.96h-237.44v388.16c0 13.12-10.88 24-24 24h-250.88c-13.12 0-24-10.88-24-24v-388.16h-237.44v510.080h773.76v-509.76zM332.16 871.040h356.16v-162.88h-356.16v162.88zM125.12 660.16h773.76v-77.12h-773.76v77.12zM174.080 184.96h136c13.12 0 24 10.88 24 24v273.28c0 13.12-10.88 24-24 24h-136c-13.12 0-24-10.88-24-24v-273.28c0-13.12 10.88-24 24-24zM198.080 458.24h88v-225.28h-88v225.28zM713.92 184.96h136c13.12 0 24 10.88 24 24v273.28c0 13.12-10.88 24-24 24h-136c-13.12 0-24-10.88-24-24v-273.28c0-13.12 10.88-24 24-24zM737.92 458.24h88v-225.28h-88v225.28zM398.080 786.24s2.24 1.28 3.2 2.24c1.28 0.96 2.24 2.56 2.88 4.16 0.96 1.6 1.28 3.52 1.28 5.76 0 3.84-0.96 7.040-2.56 9.6s-4.16 4.8-7.36 6.4c-3.2 1.6-7.68 2.24-12.8 2.24h-27.84s-1.28 0-1.6-0.64c-0.32-0.32-0.64-0.96-0.64-1.6v-59.52s0-1.28 0.64-1.6c0.32-0.32 0.96-0.64 1.6-0.64h28.8c5.12 0 9.28 0.64 12.8 2.24s6.080 3.84 8 6.72c1.92 2.88 2.56 6.4 2.56 10.56 0 3.2-0.96 6.4-2.56 8.64-1.92 2.56-3.84 4.16-6.080 5.44zM368.96 804.8h11.84c2.56 0 4.48-0.64 5.76-1.92s1.92-2.88 1.92-4.8-0.64-3.52-1.92-4.8c-1.28-1.28-3.2-1.92-5.76-1.92h-11.84v13.44zM387.84 766.72s-3.2-2.24-6.080-2.24h-12.8v15.040h12.8c2.56 0 4.48-0.64 5.76-2.24s1.92-3.2 1.92-5.44c0-1.92-0.64-3.84-1.92-5.12zM454.72 795.84c-1.6 1.6-4.16 2.88-6.72 3.84-2.88 0.96-6.080 1.28-10.24 1.28s-7.040-0.32-9.6-1.28c-2.56-0.96-4.8-2.24-6.72-3.52-1.6-1.28-2.88-2.88-3.84-4.16-0.96-1.6-1.28-2.56-1.28-3.84 0-0.64 0-0.96 0.32-1.28s0.96-0.64 1.6-0.64h10.24s1.6 0.32 2.24 1.28c0.64 1.28 1.6 2.24 2.56 2.88s2.56 0.96 4.16 0.96c2.56 0 4.16-0.64 5.12-1.6 0.96-1.28 1.28-2.88 1.28-5.12v-1.28l-11.52-1.6c-5.76-0.96-10.56-2.56-14.080-5.12s-5.44-6.080-5.44-10.24c0-2.56 0.64-5.12 2.24-7.36s3.52-3.84 6.080-5.12c2.56-1.28 5.44-1.92 8.96-1.92 2.24 0 4.48 0 6.4 0.96 1.92 0.64 3.52 1.28 4.8 2.24s2.56 1.92 3.2 3.2v-3.2s0-1.28 0.64-1.6c0.32-0.32 0.96-0.64 1.6-0.64h10.56s1.28 0 1.6 0.64c0.32 0.32 0.64 0.96 0.64 1.6v27.84c0 2.56-0.32 5.12-1.28 7.36s-2.24 4.16-3.84 5.76zM444.16 772.8c0-2.56-0.32-4.48-1.28-6.080s-1.92-2.88-3.52-3.52c-1.28-0.64-2.88-1.28-4.8-1.28-1.28 0-2.24 0-3.2 0.64-0.96 0.32-1.92 0.96-2.24 1.6-0.64 0.64-0.96 1.6-0.96 2.56 0 1.28 0.64 2.56 1.92 3.52s3.52 1.92 6.4 2.24l7.68 1.28v-1.28zM498.24 778.88l16.64 17.92s0.32 0.32 0.64 0.64c0 0 0 0.64 0 0.96 0 0.64 0 0.96-0.64 1.28-0.32 0.32-0.96 0.64-1.28 0.64h-12.16s-1.28 0-1.92-0.32c-0.32 0-0.96-0.64-1.28-0.96l-12.8-14.080v30.72s0 1.28-0.64 1.6c-0.32 0.32-0.96 0.64-1.6 0.64h-10.56s-1.28 0-1.6-0.64c-0.32-0.32-0.64-0.96-0.64-1.6v-60.48s0-1.28 0.64-1.6c0.32-0.32 0.96-0.64 1.6-0.64h10.56s1.28 0 1.6 0.64c0.32 0.32 0.64 0.96 0.64 1.6v16.64l14.4-17.28s0.64-0.64 1.28-0.96c0.32-0.32 0.96-0.64 1.92-0.64h12.48s0.96 0 1.6 0.64c0.32 0.32 0.64 0.96 0.64 1.28 0 0.64 0 0.96-0.64 1.6l-18.88 22.72zM559.040 797.76c-3.52 2.24-8 3.2-13.44 3.2-4.8 0-8.96-0.96-12.16-2.56-3.52-1.92-6.4-4.48-8.32-8s-3.2-7.68-3.2-12.48v-3.2c0-7.68 2.24-13.44 6.72-17.28 4.16-3.84 9.92-5.76 17.28-5.76 3.84 0 7.040 0.32 9.92 1.28s5.12 2.24 7.040 3.52c1.92 1.28 3.2 2.88 4.16 4.48s1.6 2.56 1.6 3.84c0 0.64 0 0.96-0.64 1.28-0.32 0.32-0.96 0.64-1.6 0.64h-11.2s-1.28 0-1.6 0c-0.32 0-0.64-0.64-1.28-1.28 0-0.32-0.64-0.96-1.28-1.28-0.64-0.64-1.28-0.96-1.92-1.28-0.96-0.32-1.92-0.64-3.2-0.64-1.6 0-3.2 0.32-4.16 1.28s-1.92 1.92-2.56 3.52c-0.64 1.6-0.96 3.2-0.96 4.8v0 0.64h29.44s1.28 0 1.6 0.64c0.32 0.32 0.64 0.96 0.64 1.6v2.24c0 4.8-0.96 8.96-2.56 12.48-1.92 3.52-4.48 6.72-8 8.64zM553.6 781.12h-15.36c0 2.24 0 3.84 0.96 5.44 0.64 1.6 1.6 2.56 2.56 3.52 1.28 0.64 2.56 1.28 4.16 1.28s3.2-0.32 4.16-1.28c1.28-0.64 2.24-1.92 2.56-3.52 0.64-1.6 0.96-3.2 0.96-5.12v0zM610.88 800h-4.16c-2.88 0-5.44-0.64-7.68-1.6s-4.16-2.56-5.76-4.48v3.52s0 1.28-0.64 1.6c-0.32 0.32-0.96 0.64-1.6 0.64h-10.56s-1.28 0-1.6-0.64c-0.32-0.32-0.64-0.96-0.64-1.6v-43.2s0-1.28 0.64-1.6c0.32-0.32 0.96-0.64 1.6-0.64h11.2s1.28 0 1.6 0.64c0.32 0.32 0.64 0.96 0.64 1.6v23.36c0 2.56 0.64 4.48 1.92 5.76s3.2 1.92 5.76 1.92h8.96s1.28 0 1.6 0.64c0.32 0.32 0.64 0.96 0.64 1.6v9.28s0 1.28-0.64 1.6c-0.32 0.32-0.96 0.64-1.6 0.64zM665.6 800h-10.24s-1.28 0-1.92-0.64-0.64-0.96-0.96-1.28l-10.88-26.56-10.56 26.56s-0.32 0.96-0.64 1.28c-0.32 0.32-0.96 0.64-1.92 0.64h-10.56s-0.96 0-1.28-0.64c-0.32-0.32-0.64-0.96-0.64-1.28 0 0 0-0.64 0-0.96l17.6-41.6-7.040-17.28s0-0.32 0-0.64c0 0 0-0.32 0-0.64 0-0.64 0-0.96 0.64-1.28s0.96-0.64 1.28-0.64h10.24s1.28 0 1.92 0.64c0.32 0.32 0.64 0.96 0.96 1.28l25.92 60.16s0 0.96 0 1.28c0 0.64 0 0.96-0.64 1.28-0.32 0.32-0.96 0.64-1.28 0.64z" />
<glyph unicode="&#xe97a;" glyph-name="ice-cream" data-tags="ice-cream-cone-svgrepo-com" d="M689.92 654.72c8 20.8 12.16 43.52 12.16 66.56 0 104.64-85.12 189.76-189.76 189.76s-190.080-85.12-190.080-189.76c0-23.040 4.16-45.76 12.16-66.56-18.88-14.4-30.4-36.8-30.4-61.76 0-36.48 24.96-66.56 58.56-75.52l126.080-513.92c2.56-10.88 12.16-18.24 23.36-18.24s20.8 7.68 23.36 18.24l126.4 513.92c33.6 8.64 58.56 39.040 58.56 75.2 0 25.28-11.84 47.68-30.4 61.76zM512.32 863.040c78.080 0 141.76-63.68 141.76-141.76 0-17.6-3.2-34.56-9.28-50.24-0.96 0-1.92 0-2.56 0h-260.16s-1.92 0-2.56 0c-6.080 15.68-9.28 32.64-9.28 50.24 0 78.080 63.68 141.76 142.080 141.76zM512.32 110.080l-99.52 404.8h198.72l-99.52-404.8zM642.24 562.88h-260.16c-16.64 0-30.080 13.44-30.080 30.080 0 13.12 8.32 24.32 21.76 28.8 2.24 0.96 5.12 1.28 8.32 1.28h260.16c2.88 0 5.76-0.64 9.6-1.92 12.16-3.84 20.48-15.040 20.48-28.16 0-16.64-13.44-30.080-30.080-30.080zM475.2 757.12c0-24.566-19.914-44.48-44.48-44.48s-44.48 19.914-44.48 44.48c0 24.566 19.914 44.48 44.48 44.48s44.48-19.914 44.48-44.48zM556.48 814.72c0-24.566-19.914-44.48-44.48-44.48s-44.48 19.914-44.48 44.48c0 24.566 19.914 44.48 44.48 44.48s44.48-19.914 44.48-44.48zM625.92 750.4c0-24.566-19.914-44.48-44.48-44.48s-44.48 19.914-44.48 44.48c0 24.566 19.914 44.48 44.48 44.48s44.48-19.914 44.48-44.48z" />
<glyph unicode="&#xe97b;" glyph-name="humberger" data-tags="humberger-svgrepo-com" d="M935.040 513.6h-8.96v66.24c0 152-184.32 275.52-410.88 275.52s-410.88-123.84-410.88-275.52v-66.24h-15.36c-26.88 0-48.64-21.76-48.64-48.64v-33.92c0-26.88 21.76-48.64 48.64-48.64h15.36v-66.24c0-151.68 184.32-275.2 410.88-275.2s410.88 123.52 410.88 275.2v66.24h8.96c26.88 0 48.64 21.76 48.64 48.64v33.92c0 26.88-21.76 48.64-48.64 48.64zM515.2 807.040c187.2 0 341.76-89.28 360.96-203.52h-721.92c19.2 114.24 173.76 203.52 360.96 203.52zM152.32 555.84h725.76v-42.24h-725.76v42.24zM515.2 89.28c-187.2 0-341.76 89.28-360.96 203.2h399.68l57.6-96c4.48-7.36 12.16-11.52 20.48-11.52s16.32 4.48 20.48 11.52l57.6 96h165.44c-19.2-113.92-173.76-203.2-360.96-203.2zM878.080 340.48h-181.12c-8.32 0-16.32-4.48-20.48-11.52l-44.16-73.28-44.16 73.28c-4.48 7.36-12.16 11.52-20.48 11.52h-415.36v42.24h725.76v-42.24zM935.040 430.72l-846.72 0.64 0.64 34.56h39.040s0 0 0 0h774.080s0 0 0 0h32.64s0.64-0.64 0.64-0.64l-0.64-34.56z" />
<glyph unicode="&#xe97c;" glyph-name="honey" data-tags="honey-svgrepo-com" d="M832.32 472.32h-640.32c-13.12 0-24-10.88-24-24 0-135.68 79.040-253.12 193.6-309.12v-75.2c0-13.12 10.88-24 24-24h253.44c13.12 0 24 10.88 24 24v75.2c114.24 56 193.28 173.12 193.28 308.8 0 13.12-10.88 24-24 24zM615.040 88h-205.44v31.68c32.32-10.24 66.88-15.68 102.72-15.68s70.4 5.44 103.040 15.68v-31.68zM512 152c-132.16 0-244.16 87.040-282.24 207.040h470.080c13.12 0 24 10.88 24 24s-10.88 24-24 24h-480.64c-0.96 5.76-1.6 11.52-2.24 17.28h590.4c-12.16-152-139.84-272.32-295.36-272.32zM817.6 792.64h-337.92v4.16c0 32.64-26.56 59.2-59.2 59.2-13.12 0-25.28-4.48-35.2-11.84-9.92 7.36-22.080 11.84-35.2 11.84s-25.28-4.48-35.2-11.84c-9.92 7.36-22.080 11.84-35.2 11.84s-25.28-4.48-35.2-11.84c-9.92 7.36-22.080 11.84-35.2 11.84-32.64 0-59.2-26.56-59.2-59.2v-123.52c0-32.64 26.56-59.2 59.2-59.2 13.12 0 25.28 4.48 35.2 11.84 9.92-7.36 22.080-11.84 35.2-11.84s25.28 4.48 35.2 11.84c9.92-7.36 22.080-11.84 35.2-11.84s25.28 4.48 35.2 11.84c9.92-7.36 22.080-11.84 35.2-11.84 32.64 0 59.2 26.56 59.2 59.2v6.4h338.24c31.040 0 56.64 25.28 56.64 56.64s-25.28 56.64-56.64 56.64zM208.96 661.76c-6.080 0-11.2 5.12-11.2 11.2v123.52c0 6.080 5.12 11.2 11.2 11.2s11.2-5.12 11.2-11.2v-123.52c0-6.080-5.12-11.2-11.2-11.2zM279.36 661.76c-6.080 0-11.2 5.12-11.2 11.2v123.52c0 6.080 5.12 11.2 11.2 11.2s11.2-5.12 11.2-11.2v-123.52c0-6.080-5.12-11.2-11.2-11.2zM349.76 661.76c-6.080 0-11.2 5.12-11.2 11.2v123.52c0 6.080 5.12 11.2 11.2 11.2s11.2-5.12 11.2-11.2v-123.52c0-6.080-5.12-11.2-11.2-11.2zM431.36 672.96c0-6.080-5.12-11.2-11.2-11.2s-11.2 5.12-11.2 11.2v123.52c0 6.080 5.12 11.2 11.2 11.2s11.2-5.12 11.2-11.2v-123.52zM817.6 727.36h-337.92v16.96h338.24c4.8 0 8.64-3.84 8.64-8.64s-3.84-8.64-8.64-8.64z" />
</font>
</defs>
</svg>
